<?xml version="1.0" encoding="UTF-8" standalone="no"?>
<!-- Created with Inkscape (http://www.inkscape.org/) -->

<svg
   xmlns:osb="http://www.openswatchbook.org/uri/2009/osb"
   xmlns:dc="http://purl.org/dc/elements/1.1/"
   xmlns:cc="http://creativecommons.org/ns#"
   xmlns:rdf="http://www.w3.org/1999/02/22-rdf-syntax-ns#"
   xmlns:svg="http://www.w3.org/2000/svg"
   xmlns="http://www.w3.org/2000/svg"
   xmlns:sodipodi="http://sodipodi.sourceforge.net/DTD/sodipodi-0.dtd"
   xmlns:inkscape="http://www.inkscape.org/namespaces/inkscape"
   width="178.27589mm"
   height="93.937988mm"
   viewBox="0 0 178.2759 93.937986"
   version="1.1"
   id="svg8"
   inkscape:version="0.92.3 (2405546, 2018-03-11)"
   sodipodi:docname="ecran291wifireboot.svg">
  <defs
     id="defs2">
    <linearGradient
       id="linearGradient2323"
       osb:paint="solid">
      <stop
         style="stop-color:#000000;stop-opacity:1;"
         offset="0"
         id="stop2321" />
    </linearGradient>
  </defs>
  <sodipodi:namedview
     id="base"
     pagecolor="#ffffff"
     bordercolor="#666666"
     borderopacity="1.0"
     inkscape:pageopacity="0.0"
     inkscape:pageshadow="2"
     inkscape:zoom="0.98994949"
     inkscape:cx="319.03474"
     inkscape:cy="175.37363"
     inkscape:document-units="mm"
     inkscape:current-layer="layer1"
     showgrid="false"
     inkscape:window-width="1680"
     inkscape:window-height="987"
     inkscape:window-x="-8"
     inkscape:window-y="-8"
     inkscape:window-maximized="1"
     inkscape:measure-start="6.14323,277.876"
     inkscape:measure-end="153.75,33.5714"
     fit-margin-top="2"
     fit-margin-left="2"
     fit-margin-right="2"
     fit-margin-bottom="2"
     showguides="false" />
  <metadata
     id="metadata5">
    <rdf:RDF>
      <cc:Work
         rdf:about="">
        <dc:format>image/svg+xml</dc:format>
        <dc:type
           rdf:resource="http://purl.org/dc/dcmitype/StillImage" />
        <dc:title />
      </cc:Work>
    </rdf:RDF>
  </metadata>
  <g
     inkscape:label="Calque 1"
     inkscape:groupmode="layer"
     id="layer1"
     transform="translate(145.55336,-242.90221)">
    <path
       style="fill:#000000;stroke-width:0.07291768"
       d="m -31.596049,294.17845 7.875105,0.0334 h 7.875115 v -0.36458 c 0,-0.20053 0.02013,-0.36459 0.0447,-0.36459 0.0481,0 1.343259,0.4029 3.561974,1.10801 1.284123,0.40809 1.36989,0.44611 1.203135,0.53324 -0.218335,0.11409 -4.568223,1.49421 -4.709482,1.49421 -0.07174,0 -0.100332,-0.10374 -0.100332,-0.36459 v -0.36459 h -7.875115 -7.875105 z"
       id="path1683"
       inkscape:connector-curvature="0"
       sodipodi:nodetypes="cccssccsscccc" />
    <g
       transform="translate(-1.8366969,0.37802216)"
       id="layer1-0"
       inkscape:label="Calque 1">
      <rect
         y="244.85376"
         x="-7.6574163"
         height="89.531776"
         width="40.140007"
         id="rect846"
         style="opacity:1;fill:#000000;fill-opacity:0;stroke:#000000;stroke-width:0.15327561;stroke-linejoin:round;stroke-miterlimit:4;stroke-dasharray:none;stroke-opacity:1;paint-order:fill markers stroke" />
      <g
         transform="matrix(0.05415616,0,0,0.05415616,6.657867,254.19117)"
         inkscape:label="Calque 1"
         id="layer1-7">
        <path
           style="fill:#000000;stroke-width:0.28222224"
           d="m 19.718941,287.09434 c -0.0854,-0.22252 -0.8238,-2.56078 -1.64091,-5.19613 l -1.48564,-4.79154 1.85876,-0.17613 c 18.08951,-1.71409 55.93315,-4.31897 76.08322,-5.23701 18.668829,-0.85055 51.691129,-1.42401 82.000949,-1.42401 h 20.02238 l -0.006,2.61055 c -0.0102,4.31048 -1.2027,6.08077 -3.86886,5.7436 -6.82486,-0.86308 -58.09403,-1.20687 -76.27606,-0.51147 -28.617269,1.09451 -48.318599,2.59143 -69.708889,5.29651 -9.23359,1.16771 -22.75951,3.20891 -26.18231,3.95118 -0.39901,0.0865 -0.69984,-0.0138 -0.79646,-0.26555 z m 12.02098,-20.79155 c -7.37517,-0.79786 -12.9831,-3.39393 -17.95078,-8.30994 -5.0546896,-5.00211 -6.8746996,-9.19118 -7.7324696,-17.79764 -0.8496,-8.52451 1.81805,-18.11672 7.2986196,-26.24407 9.15118,-13.57061 24.8935,-21.42341 40.41959,-20.16265 6.41692,0.52107 11.75225,1.31167 12.74225,1.88816 2.14145,1.24702 1.96679,2.57507 -0.9817,7.46459 l -1.98163,3.28616 -1.97733,-0.67253 c -9.79778,-3.33244 -21.10359,-1.77474 -30.09065,4.14587 -6.44799,4.24788 -11.89618,11.84073 -14.055,19.58767 -0.71124,2.55232 -0.7861,3.25406 -0.78276,7.33777 0.003,3.49776 0.11946,4.92904 0.51731,6.35 2.02394,7.22866 6.32542,11.15522 14.11864,12.88803 4.44157,0.98758 15.05765,0.27036 19.59301,-1.32369 4.13283,-1.45257 6.83298,-4.48939 6.8239,-7.67472 -0.004,-1.49289 -1.48411,-4.98366 -2.97205,-7.01062 -2.32934,-3.1732 -7.27145,-6.31915 -12.12495,-7.71827 -1.93325,-0.55729 -2.33327,-0.78193 -2.79448,-1.56928 -1.12962,-1.92839 -1.69864,-6.81617 -1.0057,-8.63874 l 0.29049,-0.76404 2.88451,0.15813 c 9.28308,0.50889 18.84678,6.85598 24.23693,16.08518 4.18578,7.16706 3.38286,15.71324 -1.97909,21.06506 -3.15246,3.1465 -9.54731,5.96948 -16.41821,7.24774 -2.8609,0.53224 -12.55916,0.76255 -16.07845,0.38183 z m 89.822089,-1.68709 c -3.12399,-0.63223 -4.8489,-2.32838 -6.99515,-6.87853 -0.81924,-1.73685 -2.3057,-4.42184 -3.30322,-5.96666 -3.16826,-4.90651 -5.99326,-9.94906 -11.929779,-21.29433 -1.66504,-3.18205 -3.87045,-7.30955 -4.9009,-9.17222 l -1.87356,-3.38667 -0.17873,1.69334 c -0.0983,0.93133 -0.57473,3.95642 -1.05872,6.72242 -1.11183,6.35409 -1.43181,11.96572 -1.43883,25.23387 l -0.005,10.22518 -0.77612,0.21704 c -0.89536,0.25039 -2.96534,0.22198 -8.07739,-0.11088 l -3.63239,-0.23652 0.0416,-8.04333 c 0.0443,-8.55513 0.6954,-23.09654 1.18139,-26.38445 0.16087,-1.08839 0.52911,-3.24889 0.8183,-4.80111 0.79403,-4.26187 1.18384,-9.92974 1.24223,-18.06222 0.0637,-8.87606 0.0433,-8.81083 3.3646,-10.72286 1.16718,-0.67193 1.57028,-0.7605 2.85676,-0.62773 0.82381,0.085 1.99896,0.41025 2.61143,0.72271 1.26757,0.64667 3.03302,2.48035 3.3414,3.47057 0.11412,0.36641 0.63411,1.14169 1.15556,1.72285 0.52144,0.58116 2.1574,3.47275 3.63546,6.42575 3.285239,6.56357 5.793789,11.1463 12.897699,23.56204 3.01966,5.27756 6.24209,10.99256 7.16097,12.7 l 1.67068,3.10445 0.20476,-3.24556 c 0.11262,-1.78506 0.13309,-6.03956 0.0455,-9.45444 -0.11653,-4.54256 0.004,-9.16285 0.44792,-17.21556 0.33395,-6.05367 0.61667,-12.65312 0.62825,-14.66546 0.0209,-3.63514 0.0263,-3.66398 0.82633,-4.46405 l 0.80527,-0.80527 2.89543,0.1887 c 1.59249,0.10379 4.09393,0.27111 5.55876,0.37184 l 2.66333,0.18313 -0.0655,1.83444 c -0.036,1.00895 -0.31695,6.72395 -0.62425,12.7 -0.3073,5.97606 -0.67878,16.96156 -0.8255,24.41223 -0.14672,7.45066 -0.33249,14.18166 -0.41282,14.95777 -0.0803,0.77611 -0.28348,3.37961 -0.45145,5.78556 -0.34522,4.94462 -0.75328,6.20336 -2.46964,7.61813 -1.70051,1.4017 -4.78525,2.14099 -7.03429,1.68583 z m 35.71791,-0.8288 c -3.34685,-0.70586 -5.7924,-1.97638 -8.28518,-4.30436 -4.00003,-3.73559 -6.22205,-8.5636 -6.91855,-15.03266 -0.24676,-2.29187 -0.22052,-3.83135 0.13031,-7.64559 0.51923,-5.6452 0.89369,-11.8152 1.29182,-21.28588 0.47424,-11.28121 1.21236,-20.49895 1.67974,-20.97694 0.72551,-0.74201 5.9029,-1.00126 8.92392,-0.44686 2.29902,0.4219 4.35572,1.33582 4.35572,1.93551 0,0.26399 -0.18548,1.7406 -0.41218,3.28135 -0.57144,3.88368 -0.93594,8.46807 -1.27738,16.06582 -0.16044,3.57012 -0.53881,9.66612 -0.84083,13.54667 -0.89312,11.47547 -0.9525,13.53067 -0.46823,16.20716 1.35245,7.47488 6.08226,10.32303 11.98873,7.21926 1.99919,-1.05054 4.50662,-3.33124 5.8613,-5.33129 4.43343,-6.54553 7.71002,-26.47678 7.72367,-46.98255 0.003,-3.74992 0.0395,-4.03627 0.49659,-3.8426 0.27164,0.11509 2.55041,0.24653 5.06393,0.2921 3.81882,0.0692 4.77752,0.17463 5.83231,0.6412 2.40231,1.06266 2.35215,0.69561 1.62068,11.85986 -1.51597,23.13814 -3.38586,33.27867 -7.55337,40.96242 -2.25827,4.16362 -6.37773,8.48723 -10.29041,10.80036 -5.44955,3.22171 -12.60301,4.36982 -18.92259,3.03702 z M -22.023409,235.39375 c -2.33216,-1.29933 -6.38529,-3.01381 -14.67556,-6.20777 -8.13025,-3.13231 -14.03516,-5.88308 -17.5576,-8.17913 -4.65402,-3.03364 -7.9993,-6.89115 -9.40982,-10.85067 -0.35942,-1.00894 -1.11927,-2.53294 -1.68856,-3.38666 -6.95933,-10.43646 -10.49145,-24.28009 -9.32495,-36.54778 1.7371,-18.26837 11.01768,-33.88186 26.29459,-44.23758 4.74572,-3.21697 11.42203,-6.52228 16.2019,-8.02124 1.24177,-0.38942 2.89277,-1.00217 3.66889,-1.36165 4.07849,-1.88914 12.83042,-4.21602 19.3322204,-5.13988 5.56988,-0.79145 21.9915396,-0.70241 29.0688896,0.15761 17.63246,2.14263 35.47268,6.72443 45.99426,11.81245 l 4.36649,2.11154 -0.97982,0.82311 c -0.5389,0.45271 -1.68793,1.26193 -2.55339,1.79826 -7.50618,4.65156 -16.51717,6.16619 -32.2931,5.42803 -9.72444,-0.455 -29.1895796,-0.32859 -32.1733296,0.20895 -3.83395,0.6907 -7.15789,1.54398 -9.4343,2.42186 -4.8895004,1.88559 -9.9278504,5.70747 -13.0381404,9.89017 -0.79912,1.07466 -1.55195,1.95393 -1.67295,1.95393 -0.121,0 -1.25824,0.9767 -2.52721,2.17045 -2.5012,2.35295 -4.10001,4.50366 -5.37755,7.23385 -2.74253,5.86098 -2.79015,13.43763 -0.12567,19.99496 2.97991,7.33359 9.40634,13.05998 16.307,14.53065 4.2066804,0.89652 9.6123204,0.0688 13.98216043,-2.1411 4.22450997,-2.13635 6.62253997,-4.1235 19.10220957,-15.82921 11.23263,-10.536 16.54778,-14.99307 22.88682,-19.19199 11.4506,-7.58477 22.78479,-10.92481 33.71207,-9.93453 6.16966,0.55912 11.99012,2.09504 14.66223,3.86911 0.54327,0.36069 1.43227,0.74469 1.97555,0.85333 0.54328,0.10864 1.62278,0.55218 2.39889,0.98564 3.14687,1.75752 8.445439,2.57391 15.804449,2.43508 5.89255,-0.11116 9.00777,-0.55877 18.91739,-2.71813 15.82746,-3.44891 18.04418,-3.78225 25.10928,-3.77575 4.43655,0.004 5.85859,0.11145 8.23761,0.62197 5.46418,1.17259 9.51492,2.88333 14.21623,6.0039 2.75591,1.82929 5.95912,4.91555 19.59742,18.88198 8.41466,8.6171 11.83286,11.19939 16.60894,12.54724 0.90822,0.25631 2.36872,0.78533 3.24555,1.17561 4.07557,1.81404 18.17576,1.59301 21.22997,-0.33279 1.44992,-0.91424 2.53549,-2.0724 4.2797,-4.56598 1.73753,-2.48398 2.40369,-4.61817 2.73691,-8.76822 1.07614,-13.40344 -6.98556,-25.0546 -22.70122,-32.80885 -15.31586,-7.55698 -33.82069,-9.49048 -50.8844,-5.31671 l -3.52008,0.86101 -2.14887,-0.75694 c -3.20423,-1.12869 -5.80572,-2.58753 -7.08055,-3.97055 -0.98244,-1.06583 -1.1361,-1.40764 -1.1361,-2.52724 0,-1.18682 0.12347,-1.41737 1.48166,-2.76659 3.20664,-3.18545 11.01223,-6.23492 22.46739,-8.77749 17.75408,-3.94066 31.07909,-4.41338 44.80463,-1.58949 29.11266,5.98964 51.72256,25.89861 56.0274,49.33448 0.51255,2.7903 0.60492,4.28447 0.57689,9.33103 -0.0473,8.5142 -0.7419,13.17496 -2.89376,19.41554 -6.68285,19.38103 -22.61365,33.67891 -43.44199,38.98919 -3.99945,1.01968 -4.21363,1.04354 -9.44843,1.05271 l -5.35618,0.009 -1.45605,-2.11667 c -0.80083,-1.16416 -3.45135,-5.41866 -5.89003,-9.45444 -10.65063,-17.62573 -15.74079,-23.82184 -23.94042,-29.14203 -4.5439,-2.94823 -8.07053,-4.36692 -15.71556,-6.32206 -9.39628,-2.40301 -12.78728,-2.65541 -29.91555,-2.22666 -13.07774,0.32736 -16.36953,0.55115 -19.28533,1.31115 -1.74568,0.45502 -2.68494,0.44955 -8.79579,-0.0511 -1.24178,-0.10175 -2.4538,-0.35615 -2.69338,-0.56534 -0.5656,-0.49385 -4.80632,-2.46496 -6.61995,-3.077 -5.91242,-1.99524 -11.607439,-1.67704 -17.356669,0.96977 -2.94263,1.35471 -4.02674,1.46253 -14.39333,1.43151 -4.11339,-0.0123 -9.06639,0.1112 -11.00667,0.27445 -25.13238,2.11466 -46.79332,11.28583 -58.6318196,24.82452 -5.23937997,5.99182 -8.486,12.60897 -9.9304,20.23976 -0.31831,1.68164 -0.91197,4.10527 -1.31924,5.38586 l -0.74048,2.32833 -7.2340304,-0.0328 -7.23403,-0.0328 z"
           id="path5138"
           inkscape:connector-curvature="0" />
        <path
           style="fill:#000000;stroke-width:0.36308348"
           d="m -47.430882,125.23576 c -0.498861,-0.47406 -1.193349,-1.09766 -1.543366,-1.3858 -0.350017,-0.28808 -1.883345,-1.69781 -3.407468,-3.13256 -1.52406,-1.43473 -3.193448,-2.93171 -3.70973,-3.32671 -0.516331,-0.39494 -0.938733,-0.79355 -0.938733,-0.88583 0,-0.0925 -0.591256,-0.65775 -1.313921,-1.25674 -0.722712,-0.59896 -2.314585,-2.02735 -3.537581,-3.17424 -1.222966,-1.14683 -2.640838,-2.45916 -3.150711,-2.91626 -0.509939,-0.4571 -1.336889,-1.19791 -1.837652,-1.64626 -0.500764,-0.44833 -2.162704,-1.98903 -3.693173,-3.42379 -1.530468,-1.43473 -3.2051,-2.93171 -3.72138,-3.3267 -0.51633,-0.39495 -0.93873,-0.805492 -0.93873,-0.912252 0,-0.10664 -0.42881,-0.51734 -0.95245,-0.912295 -0.82094,-0.618968 -2.31358,-1.980404 -7.54152,-6.878694 -0.55381,-0.51888 -1.2876,-1.179187 -1.63069,-1.467338 -0.34332,-0.28808 -1.8895,-1.696336 -3.43645,-3.129282 -1.54699,-1.432982 -3.26756,-2.991248 -3.82343,-3.462917 -0.55592,-0.471632 -1.46385,-1.280122 -2.01762,-1.79666 -0.55381,-0.516538 -2.26291,-2.112963 -3.79803,-3.547722 -1.5351,-1.434725 -3.219703,-2.931756 -3.743533,-3.326706 -0.52384,-0.394938 -0.95244,-0.805489 -0.95244,-0.91224 0,-0.648216 -2.28967,-1.79413 -3.59656,-1.799946 -0.80141,-0.0035 -2.91254,-0.216826 -4.69141,-0.474046 -2.85255,-0.412316 -4.33527,-0.724392 -7.75476,-1.63217 -2.59959,-0.690118 -7.00835,-2.894586 -10.01621,-5.00829 -3.04681,-2.141078 -3.59383,-2.707288 -5.19778,-5.380234 -2.08904,-3.481176 -2.1143,-3.534323 -3.20742,-6.737157 -1.12997,-3.310987 -1.19968,-11.852317 -0.12129,-14.836441 2.25276,-6.232535 2.78736,-7.366581 5.51429,-11.696915 2.25819,-3.586011 8.2041,-10.777693 10.44442,-12.632787 0.34955,-0.28961 1.63311,-1.463288 2.85237,-2.608578 4.10856,-3.8593728 15.80354,-13.0058962 16.6296,-13.0058962 0.19673,0 0.35718,-0.1166778 0.35718,-0.2591871 0,-0.1424976 0.93735,-0.8356176 2.082983,-1.5402876 1.14567,-0.7046702 2.28275,-1.4389158 2.52686,-1.6316637 1.05973,-0.8368067 10.35261,-6.3512254 10.70311,-6.3512254 0.21296,0 0.44791,-0.122082 0.52187,-0.271137 0.19673,-0.395986 6.216,-3.641841 6.75342,-3.641841 0.25118,0 0.45651,-0.129017 0.45651,-0.286538 0,-0.157521 0.54579,-0.468854 1.21287,-0.691684 0.66709,-0.222994 1.21288,-0.534139 1.21288,-0.69173 0,-0.157521 0.16904,-0.286538 0.37533,-0.286538 0.36148,0 5.275535,-2.244687 5.68905,-2.598652 0.8803,-0.753425 20.695978,-8.621085 26.279033,-10.433888 1.22295,-0.397105 2.678395,-0.909521 3.234314,-1.138673 0.555921,-0.229153 2.152428,-0.730467 3.547859,-1.11402 1.395433,-0.383589 2.850879,-0.835806 3.234316,-1.005065 1.24315,-0.548774 12.325703,-3.57645 18.890372,-5.160795 17.6420443,-4.257702 38.173563,-7.71373 47.590547,-8.010899 1.937463,-0.06123 3.756767,-0.263802 4.042948,-0.450404 0.617372,-0.402615 7.692873,-1.150495 18.309042,-1.935191 10.969365,-0.81081 43.890858,-0.815814 55.185886,-0.0083 15.75656,1.126381 29.71696,2.543963 39.21636,3.982184 1.66771,0.252641 4.66957,0.698618 6.67082,0.99136 2.00125,0.292696 4.73024,0.720377 6.06439,0.950307 1.33418,0.229917 3.88121,0.668312 5.66007,0.974135 1.77893,0.305799 4.16002,0.764093 5.29135,1.018322 1.13137,0.254184 2.3707,0.46219 2.75408,0.46219 0.38347,0 1.55,0.205275 2.59237,0.456068 1.0424,0.250721 3.07783,0.702821 4.52317,1.004335 3.36812,0.702633 8.54419,1.869105 13.1395,2.961096 4.44772,1.056904 19.88556,5.212022 21.83179,5.876048 0.66708,0.227611 2.75928,0.875402 4.64937,1.439576 1.89004,0.564138 3.80032,1.153885 4.24507,1.310512 0.44457,0.156744 2.44595,0.826257 4.44719,1.488023 7.68993,2.542846 22.81691,8.508434 23.10373,9.111356 0.21249,0.446095 1.65768,1.002792 2.2665,0.872975 0.53361,-0.113616 3.2,1.172629 3.75482,1.811602 0.29414,0.338907 1.28001,0.796022 2.19052,1.016085 0.91062,0.219898 2.31292,0.759854 3.11635,1.199591 0.80345,0.439702 1.70829,0.799484 2.01079,0.799484 0.30274,0 0.55003,0.123248 0.55003,0.273834 0,0.150585 0.46653,0.445164 1.03673,0.654713 1.37233,0.5042814 7.47228,3.7446027 10.35381,5.4999377 1.26172,0.7685662 2.38332,1.3974015 2.49252,1.3974015 0.10934,0 0.62329,0.2884567 1.14248,0.6408917 0.5192,0.352388 2.94524,1.91986119 5.39125,3.48313112 5.76862,3.68687538 5.71656,3.64901178 13.20797,9.60713598 3.52012,2.799572 6.40017,5.257386 6.40017,5.461767 0,0.204509 0.14465,0.371649 0.32139,0.371649 0.17665,0 0.98158,0.698431 1.78873,1.552074 0.80713,0.853631 1.86439,1.917436 2.34945,2.364025 0.48505,0.44659 1.44332,1.472306 2.12956,2.279337 0.68622,0.807043 1.3947,1.516258 1.5744,1.576021 0.17954,0.05969 0.3266,0.24918 0.3266,0.420794 0,0.365869 1.67974,2.355136 2.12254,2.513882 0.16665,0.05969 0.30321,0.231082 0.30321,0.380515 0,0.14942 0.79583,1.357606 1.76847,2.684495 0.97269,1.326923 1.89458,2.732979 2.0487,3.124656 0.15423,0.391641 0.44983,0.712099 0.65731,0.712099 0.20724,0 0.37722,0.155978 0.37722,0.347007 0,0.190641 0.43073,1.107898 0.95752,2.03794 0.52659,0.930043 1.36076,2.498059 1.85365,3.484404 0.49287,0.986391 1.15361,2.275297 1.4683,2.864244 1.27493,2.386442 0.67902,2.019915 -5.02065,-3.087687 -4.40169,-3.944485 -17.38514,-14.319138 -21.75202,-17.3813 -2.00752,-1.407715 -4.40811,-3.055674 -6.41719,-4.40532 -1.06785,-0.717339 -2.14071,-1.456318 -2.38406,-1.64219 -0.24352,-0.186014 -1.17019,-0.771946 -2.05965,-1.302458 -0.88945,-0.530478 -1.70813,-1.052596 -1.81929,-1.160196 -0.11128,-0.107848 -2.11243,-1.328738 -4.44721,-2.713576 -2.3348,-1.3848514 -4.56552,-2.7282818 -4.95719,-2.9853972 -0.39156,-0.2572679 -0.87685,-0.4675468 -1.07815,-0.4675468 -0.20104,0 -0.42644,-0.1102026 -0.50072,-0.2445522 -0.2044,-0.3712734 -2.67193,-1.7119019 -3.15058,-1.7119019 -0.2316,0 -0.42069,-0.1232351 -0.42069,-0.273822 0,-0.1505857 -0.40923,-0.445553 -0.90966,-0.6556084 -0.50028,-0.2098911 -1.39269,-0.6371127 -1.98308,-0.9490346 -1.74899,-0.9240735 -10.47125,-5.1570856 -12.87465,-6.248158 -3.03048,-1.3757144 -17.96337,-7.2878503 -20.21461,-8.0032339 -1.0006,-0.318115 -2.18316,-0.699384 -2.62792,-0.847662 -0.44455,-0.148279 -1.80919,-0.58605 -3.0322,-0.972829 -1.22295,-0.386826 -2.58743,-0.831767 -3.03217,-0.988782 -1.0365,-0.365869 -12.64588,-3.404954 -15.56523,-4.07462 -1.223,-0.280368 -3.04233,-0.703045 -4.04294,-0.93905 -1.00064,-0.236087 -3.27476,-0.680946 -5.05363,-0.988818 -1.77892,-0.307718 -4.05307,-0.713759 -5.05369,-0.901974 -1.00062,-0.188321 -2.72897,-0.448897 -3.84076,-0.579385 -1.11178,-0.13056 -3.02208,-0.386438 -4.24506,-0.568837 -12.39613,-1.848842 -32.92441,-2.794567 -44.67431,-2.058121 -13.5212,0.84751 -15.23279,0.972605 -18.26716,1.335119 -7.9941,0.955086 -15.26489,1.988726 -18.72558,2.662125 -1.00063,0.19449 -2.68748,0.473669 -3.74857,0.619982 -1.06106,0.146347 -2.51651,0.411621 -3.2343,0.589511 -0.71786,0.177936 -2.48764,0.564833 -3.933025,0.859801 -2.86484,0.58466 -6.159792,1.321178 -8.692283,1.942937 -0.889459,0.218368 -2.708762,0.661802 -4.042933,0.985427 -1.334157,0.323507 -3.699277,0.938979 -5.255767,1.367508 -1.556534,0.428529 -4.103587,1.124227 -5.66012,1.546021 -1.55649,0.421794 -3.284838,0.915832 -3.840756,1.097924 -0.555919,0.182164 -2.011383,0.6460491 -3.234329,1.0310974 -1.222999,0.3851587 -2.58749,0.8243545 -3.032186,0.9762946 -0.444569,0.15174 -3.082768,1.0389972 -5.862253,1.9713124 -2.7795,0.9323624 -6.600053,2.2825041 -8.490144,3.0003019 C 44.262623,-1.088125 36.561041,1.9667836 36.361163,2.1582358 36.249922,2.2649019 34.885515,2.8621759 33.328964,3.4858543 31.772428,4.109522 28.710245,5.466798 26.52411,6.502016 c -2.186085,1.0352653 -4.054489,1.8822798 -4.151998,1.8822798 -0.0975,0 -0.946817,0.4005303 -1.887454,0.8900708 -2.402408,1.2502774 -3.237143,1.6585554 -3.933836,1.9241354 -0.333778,0.127086 -1.788985,0.844589 -3.234315,1.594353 -6.7549547,3.504123 -7.4816317,3.870616 -8.7933627,4.434896 -0.500284,0.215295 -0.909659,0.514501 -0.909659,0.66504 0,0.150586 -0.194812,0.273834 -0.433095,0.273834 -0.238283,0 -0.680407,0.183317 -0.982476,0.407618 -0.30226,0.224148 -1.48319297,0.921142 -2.62459797,1.548824 -3.31090303,1.820773 -7.43961403,4.177181 -7.97040803,4.549054 -0.268363,0.187945 -0.677914,0.342004 -0.909661,0.342004 -0.231586,0 -0.421634,0.110084 -0.422113,0.244552 -4.32e-4,0.13441 -0.8191193,0.661532 -1.8193213,1.171216 -1.000233,0.509639 -1.8186,1.059908 -1.8186,1.222774 0,0.162913 -0.273126,0.296168 -0.60644,0.296168 -0.333779,0 -0.606425,0.115147 -0.606425,0.255726 0,0.140567 -0.500298,0.500208 -1.111789,0.798943 -0.611508,0.298864 -1.657642,0.930972 -2.32472,1.404995 -0.667078,0.474011 -2.349923,1.536732 -3.739665,2.361636 -1.389742,0.82495 -2.526849,1.618311 -2.526849,1.763082 0,0.144805 -0.273125,0.263037 -0.606439,0.263037 -0.33378,0 -0.607719,0.110202 -0.609302,0.244564 0,0.134408 -1.366104,1.123073 -3.032184,2.196767 -1.666127,1.07373 -3.029339,2.064208 -3.029339,2.201006 0,0.136717 -0.257845,0.248792 -0.572765,0.248792 -0.315158,0 -0.633322,0.126709 -0.707481,0.281534 -0.07399,0.154813 -1.681169,1.349788 -3.571257,2.655602 -1.890028,1.305778 -3.837128,2.719815 -4.326864,3.142305 -0.48964,0.422524 -0.998665,0.768177 -1.131081,0.768177 -0.132335,0 -0.641394,0.339684 -1.131082,0.754767 -1.207189,1.023362 -5.319647,4.008499 -7.719801,5.603688 -1.079427,0.717386 -2.307762,1.544291 -2.729748,1.837563 -0.422113,0.293472 -1.398868,0.880252 -2.171,1.304318 -0.772081,0.424067 -1.405022,0.8811 -1.406555,1.015579 0,0.134409 -0.260243,0.244564 -0.575545,0.244564 -0.31516,0 -0.633323,0.120929 -0.707483,0.26843 -0.134572,0.26843 -7.325482,4.29745 -8.440086,4.729063 -0.323758,0.125555 -1.498759,0.666006 -2.61055,1.201181 -1.776103,0.854903 -9.10454,3.81946 -12.53308,5.069936 -0.66707,0.243399 -3.00062,0.934859 -5.18566,1.53678 -3.41239,0.940015 -3.88294,1.154568 -3.33541,1.521025 0.35048,0.234533 0.63737,0.6288 0.63737,0.875849 0,0.246871 0.1528,0.44918 0.33951,0.44918 0.18672,0 0.55249,0.330053 0.81288,0.733669 0.26024,0.403533 0.83348,1.173865 1.27346,1.71189 0.4398,0.538024 1.01309,1.308403 1.27348,1.711902 0.26024,0.403533 0.6262,0.733668 0.81286,0.733668 0.18671,0 0.33952,0.152505 0.33952,0.339295 0,0.386049 1.66226,2.376047 2.12253,2.541032 0.16665,0.05969 0.30322,0.24918 0.30322,0.420794 0,0.171767 0.34333,0.709709 0.76273,1.195635 0.41973,0.485914 3.44853,4.184987 6.73108,8.220166 3.282547,4.03518 6.486974,7.967691 7.120966,8.738873 0.633898,0.771182 1.152612,1.541552 1.152612,1.711892 0,0.17022 0.152792,0.30965 0.339515,0.30965 0.186708,0 0.552484,0.33005 0.812871,0.73367 0.260243,0.40353 0.833487,1.17386 1.273468,1.71189 0.439792,0.53802 1.013084,1.30838 1.273471,1.71188 0.260243,0.40356 0.626209,0.73367 0.812869,0.73367 0.186709,0 0.339518,0.15253 0.339518,0.3393 0,0.38607 1.662259,2.37606 2.122523,2.54105 0.166649,0.0597 0.303221,0.24917 0.303221,0.42079 0,0.17177 0.344758,0.70971 0.766408,1.19562 0.421634,0.48592 3.26989,3.9649 6.329644,7.73107 3.05969,3.76616 5.738948,7.03101 5.953883,7.2552 0.756945,0.78958 -0.12946,0.39671 -1.024879,-0.45431 z m 308.174392,0.53582 c 0,-0.17946 0.1695,-0.3262 0.37723,-0.3262 0.20725,0 0.50483,-0.33006 0.66092,-0.73367 0.15616,-0.40349 0.40206,-0.80704 0.54618,-0.89669 0.21345,-0.13288 2.5243,-3.12131 5.41512,-7.00321 0.26406,-0.35471 1.25336,-1.63075 2.19841,-2.83581 0.94505,-1.20511 1.71821,-2.33338 1.71821,-2.5073 0,-0.17407 0.13937,-0.3651 0.30993,-0.42499 0.17045,-0.0597 1.12553,-1.18288 2.12251,-2.49582 0.9971,-1.31294 2.1285,-2.78028 2.51435,-3.26077 0.38582,-0.48048 0.89394,-1.16704 1.12916,-1.52572 0.51547,-0.78608 1.06614,-1.51391 2.52369,-3.33578 0.60697,-0.758672 1.10358,-1.529001 1.10358,-1.711908 0,-0.182928 0.15997,-0.332746 0.35526,-0.332746 0.19531,0 0.58128,-0.440196 0.85762,-0.978219 0.27647,-0.538028 0.66221,-0.978224 0.8576,-0.978224 0.19531,0 0.35527,-0.162148 0.35527,-0.360489 0,-0.197952 0.50893,-0.968519 1.13089,-1.711892 0.622,-0.743335 1.26077,-1.571664 1.41949,-1.840682 0.15855,-0.268819 0.60496,-0.881748 0.99166,-1.361621 0.77417,-0.960773 5.12062,-6.574327 5.88297,-7.59803 0.26404,-0.354708 1.25337,-1.630757 2.1984,-2.835823 0.94505,-1.205101 1.71823,-2.333367 1.71823,-2.507288 0,-0.174087 0.13986,-0.365105 0.31085,-0.424997 0.17096,-0.05969 1.38302,-1.54528 2.69322,-3.301204 1.3102,-1.755876 2.53472,-3.268577 2.72118,-3.361508 0.18671,-0.09278 0.33904,-0.51284 0.33904,-0.933045 0,-0.529089 -0.34189,-0.8744 -1.11179,-1.122956 -0.6115,-0.197575 -1.65763,-0.653678 -2.32471,-1.013931 -0.66709,-0.360099 -1.53124,-0.743758 -1.92035,-0.852253 -0.38917,-0.108554 -0.70754,-0.320811 -0.70754,-0.471586 0,-0.150975 -0.81868,-0.661225 -1.81931,-1.134199 -1.00063,-0.47294 -1.81931,-0.992715 -1.81931,-1.155005 0,-0.162135 -0.27314,-0.295002 -0.60645,-0.295002 -0.33329,0 -0.60643,-0.121705 -0.60643,-0.270749 0,-0.149043 -0.8312,-0.752271 -1.84721,-1.340664 -1.01595,-0.588486 -2.27079,-1.383732 -2.78852,-1.767203 -0.51776,-0.383588 -1.46031,-1.062686 -2.09464,-1.509358 -1.58071,-1.113018 -6.95846,-4.882652 -8.38211,-5.875555 -0.6404,-0.446625 -1.64102,-1.180022 -2.22358,-1.629697 -0.94362,-0.728359 -4.22197,-3.032774 -7.46315,-5.245989 -0.63152,-0.43119 -1.81408,-1.267185 -2.62794,-1.857779 -0.81383,-0.590559 -2.34391,-1.611188 -3.40012,-2.268022 -1.0562,-0.656799 -1.92041,-1.310782 -1.92041,-1.45328 0,-0.142498 -0.27265,-0.259187 -0.60644,-0.259187 -0.3333,0 -0.60643,-0.116678 -0.60643,-0.259199 0,-0.142498 -0.93736,-0.835606 -2.08299,-1.540276 -1.14563,-0.704669 -2.2827,-1.437609 -2.52684,-1.628826 -0.24402,-0.191406 -1.99023,-1.292604 -3.8803,-2.44756 -1.8901,-1.154956 -3.70939,-2.276606 -4.04294,-2.492548 -1.65406,-1.070739 -9.0695,-5.384979 -11.92659,-6.938818 -1.77892,-0.967365 -3.29502,-1.88089 -3.36913,-2.029933 -0.074,-0.149044 -0.29224,-0.271126 -0.48509,-0.271126 -0.19244,0 -1.13267,-0.418438 -2.08884,-0.929854 -4.1996,-2.2461 -7.57617,-3.961275 -7.79844,-3.961275 -0.25836,0 -0.30849,-0.03084 -2.98851,-1.877653 -0.97417,-0.671043 -3.0437,-1.617464 -4.5989,-2.103178 -1.55526,-0.485725 -3.12335,-1.074824 -3.48463,-1.309099 -0.36101,-0.234155 -1.93039,-0.937401 -3.48693,-1.562456 -1.55654,-0.625068 -2.92102,-1.222362 -3.03219,-1.3273134 -0.11126,-0.105141 -4.29558,-1.8118726 -9.29871,-3.7931578 -9.30031,-3.6829426 -12.86777,-5.035781 -18.79958,-7.12929289 -0.66708,-0.23532181 -2.44142,-0.87597801 -3.94295,-1.42343331 -1.50149,-0.5474671 -2.96607,-0.9953637 -3.25457,-0.9953637 -0.28842,0 -0.69731,-0.1175019 -0.90857,-0.2607412 -0.21104,-0.1436514 -1.47566,-0.5965165 -2.80979,-1.0067253 -1.3342,-0.4102324 -2.78963,-0.8718926 -3.23439,-1.0259401 -0.80937,-0.2803681 -4.01164,-1.2979605 -6.67083,-2.1197793 -0.77823,-0.2407023 -3.05238,-0.8939565 -5.05364,-1.4521259 -2.00124,-0.558087 -4.23607,-1.2274831 -4.96628,-1.4875531 -0.73021,-0.259964 -1.58819,-0.47275 -1.90666,-0.47275 -0.31849,0 -1.17644,-0.201037 -1.9067,-0.446555 -1.64264,-0.552471 -3.77257,-1.153732 -5.37055,-1.516175 -0.6671,-0.151351 -2.94123,-0.710404 -5.05368,-1.242459 -3.65789,-0.921342 -3.78657,-0.984508 -2.70263,-1.326688 0.62596,-0.197575 1.48496,-0.359323 1.9089,-0.359323 0.42404,0 2.09494,-0.212975 3.71337,-0.472857 8.19659,-1.317105 12.887,-1.613697 25.38082,-1.604831 12.43189,0.0082 15.75175,0.211821 26.27897,1.607256 7.56937,1.003288 16.15003,2.543964 21.83179,3.919902 8.89238,2.153405 14.72141,3.7464856 20.82108,5.6903064 0.97279,0.3100261 3.87773,1.3083921 5.96329,2.0495724 0.83388,0.2961685 1.5161,0.6812168 1.5161,0.855374 0,0.1740747 0.68226,0.411551 1.51608,0.5276636 1.99596,0.2780604 8.16683,2.65753313 8.45339,3.25975981 0.12321,0.25957566 0.661,0.47159719 1.19467,0.47159719 1.00965,0 8.55566,3.0434295 14.03642,5.6611787 1.74172,0.8318383 3.31846,1.5124777 3.5039,1.5124777 0.18525,0 0.39774,0.1124396 0.47175,0.2499445 0.074,0.1374942 1.4667,0.9077558 3.09457,1.7119023 1.62787,0.8041464 3.4472,1.7172474 4.04294,2.0291214 0.59569,0.311958 1.35603,0.668007 1.68957,0.791395 0.33331,0.123248 0.69741,0.308496 0.80858,0.41121 0.33999,0.313877 2.78308,1.654164 3.01581,1.654164 0.12038,0 0.53692,0.22376 0.92603,0.496969 0.38917,0.273433 3.7094,2.277147 7.37834,4.453005 3.66897,2.17581 6.76181,4.043149 6.87296,4.149595 0.11115,0.106312 1.11179,0.771369 2.22363,1.477581 1.1118,0.706247 2.31715,1.51329 2.67863,1.793422 0.36148,0.279992 1.90789,1.383497 3.43647,2.451882 3.09632,2.164072 12.74211,9.88867 15.47515,12.392849 0.97145,0.890142 2.67413,2.577578 3.78374,3.749878 1.10958,1.172287 2.17651,2.180319 2.37083,2.240094 0.19435,0.05969 0.35338,0.258799 0.35338,0.442199 0,0.183329 0.54579,0.889305 1.21285,1.568627 0.6671,0.679286 1.21289,1.379458 1.21289,1.555841 0,0.176394 0.23157,0.475634 0.51418,0.664922 0.63543,0.425337 3.97662,5.841198 4.95918,8.038508 1.03125,2.306074 1.03792,6.913127 0.01,8.176072 -1.96395,2.417456 -6.1871,4.063836 -10.42421,4.063836 -2.27271,0 -2.6221,0.24148 -7.18872,4.972615 -0.99538,1.031227 -1.94862,1.874968 -2.11833,1.874968 -0.16951,0 -0.30846,0.219898 -0.30846,0.489104 0,0.268819 -0.13891,0.489118 -0.30849,0.489118 -0.16951,0 -1.39771,1.099466 -2.72895,2.44325 -1.33126,1.343749 -2.55699,2.444252 -2.72372,2.445559 -0.16667,0 -0.30324,0.22223 -0.30324,0.491424 0,0.268818 -0.13904,0.489116 -0.30846,0.489116 -0.16953,0 -1.39773,1.099468 -2.72897,2.443252 -1.33126,1.343748 -2.55698,2.444251 -2.72373,2.445558 -0.16664,0 -0.30322,0.222229 -0.30322,0.491424 0,0.26883 -0.13889,0.489117 -0.30847,0.489117 -0.16951,0 -1.39772,1.099466 -2.72898,2.44325 -1.33125,1.343752 -2.55697,2.444255 -2.72372,2.445574 -0.16664,0 -0.30321,0.222217 -0.30321,0.491424 0,0.268817 -0.13889,0.489106 -0.30849,0.489106 -0.16949,0 -1.3977,1.09947 -2.72896,2.44325 -1.33126,1.343752 -2.55697,2.444252 -2.7237,2.445572 -0.16666,0 -0.30323,0.22222 -0.30323,0.49143 0,0.26881 -0.13889,0.4891 -0.30847,0.4891 -0.16952,0 -1.39772,1.09947 -2.72897,2.44325 -1.33127,1.34375 -2.55697,2.44426 -2.72372,2.44557 -0.16665,0 -0.30323,0.22221 -0.30323,0.49142 0,0.26882 -0.13887,0.48911 -0.30847,0.48911 -0.16953,0 -1.39773,1.09947 -2.72897,2.44324 -1.33125,1.34377 -2.55698,2.44427 -2.72373,2.44558 -0.16665,0 -0.30321,0.22221 -0.30321,0.49142 0,0.26882 -0.13889,0.48911 -0.30849,0.48911 -0.1695,0 -1.39766,1.09947 -2.72896,2.44327 -1.33126,1.34374 -2.55697,2.44424 -2.72372,2.44555 -0.16664,0 -0.30321,0.22221 -0.30321,0.49142 0,0.26882 -0.13665,0.49046 -0.30324,0.49213 -0.16664,0.003 -1.468,1.17556 -2.8916,2.60862 -2.65252,2.67013 -2.86955,2.8425 -2.86955,2.27949 z"
           id="path5151"
           inkscape:connector-curvature="0" />
      </g>
      <text
         id="text855-1"
         y="310.93976"
         x="-3.8133614"
         style="font-style:normal;font-variant:normal;font-weight:bold;font-stretch:normal;font-size:4.91384172px;line-height:1.25;font-family:'Noto Sans';-inkscape-font-specification:'Noto Sans, Bold';font-variant-ligatures:normal;font-variant-caps:normal;font-variant-numeric:normal;font-feature-settings:normal;text-align:start;letter-spacing:0px;word-spacing:0px;writing-mode:lr-tb;text-anchor:start;fill:#000000;fill-opacity:1;stroke:none;stroke-width:0.12284225"
         xml:space="preserve"><tspan
           y="310.93976"
           x="-3.8133614"
           id="tspan883"
           sodipodi:role="line">GNUVARIO-E</tspan></text>
      <text
         id="text905"
         y="279.39435"
         x="-0.38196045"
         style="font-style:normal;font-variant:normal;font-weight:bold;font-stretch:normal;font-size:4.48980284px;line-height:1.25;font-family:'Noto Sans';-inkscape-font-specification:'Noto Sans, Bold';font-variant-ligatures:normal;font-variant-caps:normal;font-variant-numeric:normal;font-feature-settings:normal;text-align:start;letter-spacing:0px;word-spacing:0px;writing-mode:lr-tb;text-anchor:start;fill:#000000;fill-opacity:1;stroke:none;stroke-width:0.11224774"
         xml:space="preserve"><tspan
           style="font-style:normal;font-variant:normal;font-weight:bold;font-stretch:normal;font-size:4.48980284px;font-family:'Noto Sans';-inkscape-font-specification:'Noto Sans, Bold';font-variant-ligatures:normal;font-variant-caps:normal;font-variant-numeric:normal;font-feature-settings:normal;text-align:start;writing-mode:lr-tb;text-anchor:start;stroke-width:0.11224774"
           y="279.39435"
           x="-0.38196045"
           id="tspan915"
           sodipodi:role="line">   Version</tspan><tspan
           style="font-style:normal;font-variant:normal;font-weight:bold;font-stretch:normal;font-size:4.48980284px;font-family:'Noto Sans';-inkscape-font-specification:'Noto Sans, Bold';font-variant-ligatures:normal;font-variant-caps:normal;font-variant-numeric:normal;font-feature-settings:normal;text-align:start;writing-mode:lr-tb;text-anchor:start;stroke-width:0.11224774"
           y="285.00659"
           x="-0.38196045"
           id="tspan917"
           sodipodi:role="line">    Beta 3</tspan><tspan
           style="font-style:normal;font-variant:normal;font-weight:bold;font-stretch:normal;font-size:4.48980284px;font-family:'Noto Sans';-inkscape-font-specification:'Noto Sans, Bold';font-variant-ligatures:normal;font-variant-caps:normal;font-variant-numeric:normal;font-feature-settings:normal;text-align:start;writing-mode:lr-tb;text-anchor:start;stroke-width:0.11224774"
           y="290.61887"
           x="-0.38196045"
           id="tspan919"
           sodipodi:role="line">    00.08-J</tspan><tspan
           style="font-style:normal;font-variant:normal;font-weight:bold;font-stretch:normal;font-size:4.48980284px;font-family:'Noto Sans';-inkscape-font-specification:'Noto Sans, Bold';font-variant-ligatures:normal;font-variant-caps:normal;font-variant-numeric:normal;font-feature-settings:normal;text-align:start;writing-mode:lr-tb;text-anchor:start;stroke-width:0.11224774"
           y="296.23111"
           x="-0.38196045"
           id="tspan921"
           sodipodi:role="line">Jun 27 2020</tspan></text>
    </g>
    <path
       sodipodi:nodetypes="cccssccsscccc"
       inkscape:connector-curvature="0"
       id="path1028"
       d="m -99.081602,296.05601 7.8751,-0.0334 h 7.87512 v 0.36458 c 0,0.20053 0.0201,0.36459 0.0447,0.36459 0.0481,0 1.34326,-0.4029 3.56197,-1.10801 1.28413,-0.40809 1.36989,-0.44611 1.20314,-0.53324 -0.21834,-0.11409 -4.56823,-1.49421 -4.70948,-1.49421 -0.0717,0 -0.10034,0.10374 -0.10034,0.36459 v 0.36459 h -7.87511 -7.87511 z"
       style="fill:#000000;stroke-width:0.07291768" />
    <path
       sodipodi:nodetypes="csccccccccccccscccccssccccscccccsccsccsscsscscssssscccccccscccsccccccccccsccscccscccssscsscccscsscccccccccccsscsssccscscccsccscccssccscccscsccccccccsscccccccccccscccssccccccccccccsccscccccsccsccccccsscccsccsscccsscsscsccscccccccsscscscccsccscccccssscsccccccccccscscccssscccccsccccccscccsccccccccccccccccccccccsccssscsccsccsscscscsccccscccsccccccscssccccsccccccsscsscccscccccssccccccscccccsccsccccccccscscccccsccccccscsccscsccccccscccscccscsccccccsccccccscccccscccccccssccccccccccccccccccccccccscccccccsccscssscscscscccssscccscscscssscsccsccsccccccscscccscsscsccscccscscscccccccccccsccccscccccsccscccccccscccccccccsccccccccsccccccccccccssccccccccccscscccccccccccc"
       style="fill:#000000;stroke-width:0.04642994"
       d="m -80.008494,326.75285 c 0.07646,-0.0446 0.08125,-0.30265 0.08125,-4.38036 v -4.33305 l 0.247742,-0.22639 c 0.136257,-0.12452 0.324222,-0.34131 0.417711,-0.48176 0.09348,-0.14045 0.189545,-0.27911 0.213465,-0.30814 0.02392,-0.029 0.05798,-0.13348 0.07569,-0.23214 0.0177,-0.0987 0.05808,-0.21073 0.08973,-0.24903 0.164404,-0.19897 0.163779,-1.39143 -8.86e-4,-1.57862 -0.03368,-0.0383 -0.07615,-0.13232 -0.09439,-0.20893 -0.04563,-0.19176 -0.156566,-0.39052 -0.315365,-0.56499 -0.07364,-0.0809 -0.157571,-0.19418 -0.186501,-0.25171 -0.0561,-0.11156 -0.379768,-0.36921 -0.609765,-0.48537 -0.07661,-0.0387 -0.201964,-0.1067 -0.278579,-0.15114 -0.214143,-0.12421 -0.452276,-0.19505 -0.655634,-0.19505 -0.10161,0 -0.207894,-0.0232 -0.236193,-0.0514 -0.03168,-0.0317 -0.133324,-0.0406 -0.264647,-0.0232 -0.117263,0.0155 -0.312452,0.0398 -0.433752,0.0539 -0.121297,0.0141 -0.262325,0.0433 -0.313396,0.0649 -0.326538,0.1381 -0.440412,0.19581 -0.465071,0.2357 -0.01536,0.0249 -0.05995,0.0452 -0.09909,0.0452 -0.131442,0 -0.635052,0.42022 -0.799413,0.66705 -0.0672,0.10092 -0.158015,0.23762 -0.201818,0.30377 -0.532919,0.80486 -0.523372,1.94309 0.02343,2.78999 0.123648,0.19153 0.327914,0.43865 0.453926,0.54916 l 0.2291,0.20093 v 4.3673 c 0,4.10488 0.0049,4.371 0.08125,4.42898 0.102083,0.0775 2.910034,0.0909 3.041162,0.0145 z m -0.290188,-4.58683 c 0,-4.31647 8.85e-4,-4.35377 0.09467,-4.45453 0.05206,-0.0559 0.125235,-0.10162 0.162598,-0.10162 0.03737,0 0.164016,-0.13059 0.281451,-0.29019 0.117432,-0.1596 0.229089,-0.30063 0.248125,-0.3134 0.01902,-0.0128 0.04988,-0.0859 0.06858,-0.16251 0.0187,-0.0766 0.06096,-0.17062 0.09394,-0.20893 0.09561,-0.11104 0.130563,-0.31224 0.151232,-0.87056 0.01294,-0.34931 0.0031,-0.52234 -0.0299,-0.52234 -0.02708,0 -0.04924,-0.0601 -0.04924,-0.13361 0,-0.0735 -0.03134,-0.15961 -0.06965,-0.1914 -0.03831,-0.0318 -0.06965,-0.0922 -0.06965,-0.13419 0,-0.14512 -0.491764,-0.74798 -0.610131,-0.74798 -0.01849,0 -0.04689,-0.0418 -0.0631,-0.0929 -0.01621,-0.0511 -0.05095,-0.0928 -0.07721,-0.0928 -0.02626,0 -0.107581,-0.0426 -0.18072,-0.0947 -0.07313,-0.0521 -0.238282,-0.1197 -0.366996,-0.15028 -0.128714,-0.0306 -0.234025,-0.0715 -0.234025,-0.091 0,-0.0195 -0.240275,-0.0354 -0.533946,-0.0354 -0.325011,0 -0.533942,0.0182 -0.533942,0.0464 0,0.0256 -0.06139,0.0464 -0.136432,0.0464 -0.156394,0 -0.616722,0.23857 -0.800252,0.41475 -0.06829,0.0655 -0.163025,0.15053 -0.210523,0.18883 -0.168208,0.13565 -0.476553,0.65812 -0.477361,0.80888 -5.85e-4,0.0491 -0.03243,0.1245 -0.07148,0.16765 -0.100842,0.11143 -0.106571,1.14876 -0.0072,1.30609 0.0377,0.0597 0.08359,0.16076 0.101985,0.2246 0.0184,0.0639 0.08324,0.18259 0.144121,0.26388 0.06087,0.0813 0.110686,0.16153 0.110686,0.17831 0,0.0793 0.436279,0.52893 0.525579,0.54165 l 0.101221,0.0144 0.01186,4.42246 c 0.0104,3.89209 0.0035,4.42245 -0.05734,4.42245 -0.0607,0 -0.07069,-0.5313 -0.08148,-4.33605 l -0.01233,-4.33605 -0.255363,-0.2489 c -0.140452,-0.1369 -0.317988,-0.34294 -0.394527,-0.45785 -0.07654,-0.11491 -0.151875,-0.21938 -0.16741,-0.23215 -0.01554,-0.0127 -0.04351,-0.10607 -0.06216,-0.20733 -0.01864,-0.10127 -0.06501,-0.2443 -0.103055,-0.31786 -0.08081,-0.15628 -0.102642,-1.10963 -0.02758,-1.2042 0.02539,-0.032 0.07231,-0.14174 0.104257,-0.24388 0.03195,-0.10215 0.07646,-0.20557 0.09891,-0.22983 0.02246,-0.0242 0.04082,-0.08 0.04082,-0.1239 0,-0.0439 0.07835,-0.16323 0.174109,-0.26522 0.09576,-0.10198 0.252155,-0.27024 0.347543,-0.37389 0.174168,-0.18928 0.783629,-0.51613 0.962388,-0.51613 0.049,0 0.102014,-0.0209 0.117792,-0.0465 0.03406,-0.0551 1.051858,-0.0638 1.116642,-0.009 0.02424,0.0203 0.12768,0.0636 0.229824,0.096 0.243991,0.0776 0.580377,0.24406 0.580377,0.28716 0,0.0187 0.05163,0.0471 0.114739,0.0629 0.0631,0.0158 0.13753,0.0714 0.165403,0.12349 0.02787,0.0521 0.106822,0.15107 0.175447,0.21999 0.175999,0.17674 0.333719,0.41063 0.333719,0.49487 0,0.0393 0.01668,0.0715 0.0371,0.0715 0.04727,0 0.148617,0.27741 0.148617,0.40681 0,0.0542 0.02088,0.11134 0.04643,0.12713 0.02659,0.0164 0.04643,0.25584 0.04643,0.5599 0,0.32318 -0.0182,0.5312 -0.04643,0.5312 -0.02553,0 -0.04673,0.0366 -0.04712,0.0813 -0.0012,0.1343 -0.108782,0.40055 -0.217923,0.5391 -0.05641,0.0716 -0.114137,0.16666 -0.128281,0.21124 -0.01417,0.0446 -0.171682,0.21523 -0.350068,0.37922 l -0.324336,0.29816 v 4.32186 c 0,2.37703 -0.01344,4.33522 -0.02976,4.35154 -0.01633,0.0163 -0.04767,0.0186 -0.06964,0.005 -0.02197,-0.0136 -0.03994,-1.98351 -0.03994,-4.37762 z m -0.731522,0.20867 -0.01186,-4.16521 0.244008,-0.23228 c 0.233742,-0.22253 0.240216,-0.23513 0.153882,-0.29981 -0.114006,-0.0854 -0.161965,-0.0849 -0.258922,0.003 -0.117073,0.10596 -1.035671,0.11171 -1.15114,0.007 -0.05059,-0.0458 -0.177433,-0.0786 -0.323994,-0.0838 -0.166972,-0.006 -0.264594,-0.0348 -0.318247,-0.094 -0.04257,-0.047 -0.101581,-0.0855 -0.131151,-0.0855 -0.09858,0 -0.489003,-0.49442 -0.489003,-0.61924 0,-0.0362 -0.03134,-0.0919 -0.06965,-0.12364 -0.03831,-0.0317 -0.06964,-0.097 -0.06964,-0.14497 0,-0.048 -0.02089,-0.0872 -0.04643,-0.0872 -0.02553,0 -0.04643,-0.0585 -0.04643,-0.13 0,-0.0715 -0.02261,-0.15264 -0.05029,-0.18029 -0.03119,-0.0312 -0.04214,-0.18021 -0.02884,-0.39234 0.02766,-0.44102 0.066,-0.58709 0.201859,-0.76938 0.06098,-0.0818 0.123739,-0.21307 0.139462,-0.29167 0.0295,-0.14752 0.574557,-0.69711 0.691358,-0.69711 0.03188,0 0.06923,-0.0294 0.08301,-0.0653 0.01376,-0.0359 0.0889,-0.0793 0.166943,-0.0964 0.07804,-0.0172 0.153812,-0.0504 0.168383,-0.074 0.01458,-0.0236 0.128735,-0.0429 0.25371,-0.0429 0.124975,0 0.281991,-0.0249 0.348922,-0.0555 0.09434,-0.043 0.14167,-0.043 0.210494,0 0.04883,0.0305 0.171407,0.0555 0.272397,0.0555 0.100989,0 0.196519,0.0209 0.212306,0.0464 0.01577,0.0256 0.07447,0.0468 0.130426,0.0471 0.05595,5.8e-4 0.153952,0.0309 0.217792,0.0678 0.06385,0.0369 0.147419,0.0822 0.185724,0.1007 0.03831,0.0185 0.139015,0.10222 0.223795,0.18614 0.08478,0.0839 0.210445,0.20023 0.279249,0.25845 0.06881,0.0583 0.154258,0.19466 0.189895,0.30319 0.03564,0.10853 0.0803,0.19733 0.09924,0.19733 0.01896,0 0.04907,0.12598 0.06693,0.27998 0.01788,0.15399 0.06172,0.3092 0.09742,0.3449 0.08606,0.0861 0.08303,0.37017 -0.0047,0.44301 -0.04058,0.0337 -0.06964,0.135 -0.06964,0.2428 0,0.28871 -0.237756,0.73169 -0.566375,1.05525 -0.156715,0.15431 -0.311543,0.28056 -0.344058,0.28056 -0.03251,0 -0.0716,0.0202 -0.08688,0.0449 -0.01528,0.0247 -0.02655,2.03977 -0.02506,4.47791 l 0.0027,4.43299 -0.221423,0.017 c -0.121781,0.009 -0.242313,0.014 -0.267848,0.0103 -0.03046,-0.004 -0.0505,-1.43953 -0.05828,-4.17188 z m -0.150647,-5.76306 c 0.03179,-0.0383 0.09339,-0.0697 0.136882,-0.0697 0.168915,0 0.466708,-0.46989 0.466708,-0.73641 0,-0.25516 -0.208645,-0.63962 -0.424722,-0.78261 -0.211026,-0.13964 -0.558639,-0.18823 -0.788657,-0.11022 -0.187795,0.0637 -0.459243,0.30733 -0.539355,0.4841 -0.0693,0.15293 -0.0761,0.53443 -0.0125,0.70173 0.04865,0.12796 0.271144,0.36837 0.463804,0.50115 0.152097,0.10482 0.614174,0.1127 0.697829,0.0119 z m -0.515207,-0.24127 c -0.197267,-0.0983 -0.273967,-0.17711 -0.384937,-0.39538 -0.07654,-0.15057 -0.08001,-0.19165 -0.02749,-0.32501 0.03306,-0.084 0.12359,-0.22057 0.201187,-0.30357 0.127067,-0.13589 0.167229,-0.15089 0.40429,-0.15089 0.200491,0 0.295135,0.0245 0.397159,0.10287 0.192519,0.14785 0.202093,0.17009 0.202876,0.47124 5.84e-4,0.25504 -0.01017,0.2823 -0.17087,0.42948 -0.09437,0.0864 -0.198838,0.15716 -0.232147,0.15716 -0.03331,0 -0.06057,0.0209 -0.06057,0.0464 0,0.0706 -0.153096,0.0556 -0.329487,-0.0323 z m 0.01584,5.98697 0.01186,-4.21352 h 0.185718 0.185718 l 0.01186,4.21352 0.01186,4.21352 h -0.209425 -0.209422 z m -0.847098,-0.17859 c 0,-4.20883 0.0027,-4.33672 0.08702,-4.33672 0.04787,0 0.16278,0.0694 0.255369,0.15419 l 0.168339,0.1542 v 4.17926 c 0,2.2986 -0.0087,4.18798 -0.01931,4.19861 -0.01064,0.0106 -0.125542,0.0121 -0.255364,0.003 l -0.236044,-0.0161 z m -3.749222,4.55963 c 0.07637,-0.058 0.08125,-0.3232 0.08125,-4.41012 v -4.34844 l 0.348227,-0.34822 c 0.19152,-0.19153 0.348221,-0.377 0.348221,-0.41216 0,-0.0352 0.02937,-0.0752 0.06526,-0.089 0.0359,-0.0138 0.07929,-0.0944 0.09642,-0.17908 0.01712,-0.0847 0.08308,-0.25953 0.146543,-0.38847 0.107733,-0.21887 0.11412,-0.27129 0.09609,-0.78931 -0.02016,-0.57945 -0.05384,-0.78635 -0.147002,-0.90309 -0.03056,-0.0383 -0.08091,-0.15845 -0.111876,-0.26698 -0.03097,-0.10853 -0.07636,-0.19732 -0.100868,-0.19732 -0.02451,0 -0.04457,-0.0284 -0.04457,-0.0632 0,-0.0347 -0.07428,-0.14442 -0.165059,-0.24376 -0.09078,-0.0993 -0.210927,-0.23096 -0.266979,-0.29251 -0.104201,-0.11444 -0.612847,-0.45155 -0.821568,-0.5445 -0.29044,-0.12936 -0.388728,-0.15611 -0.573272,-0.15611 -0.108604,0 -0.220617,-0.0232 -0.248913,-0.0514 -0.05151,-0.0515 -0.170063,-0.044 -0.733221,0.0462 -0.392684,0.063 -0.533945,0.1026 -0.533945,0.14992 0,0.0225 -0.02986,0.041 -0.06636,0.041 -0.21799,0 -1.162767,0.83458 -1.251344,1.1054 -0.02249,0.0687 -0.06517,0.15632 -0.09486,0.19463 -0.181769,0.23452 -0.269161,0.64233 -0.263236,1.22843 0.0046,0.45901 0.06476,0.79754 0.158228,0.89101 0.0175,0.0175 0.03182,0.072 0.03182,0.12122 0,0.0492 0.04179,0.14253 0.09286,0.20746 0.05107,0.0649 0.09286,0.14657 0.09286,0.18144 0,0.0349 0.02197,0.0634 0.0488,0.0634 0.02685,0 0.07936,0.0731 0.116699,0.16251 0.03735,0.0894 0.08681,0.16251 0.109921,0.16251 0.02311,0 0.127292,0.0819 0.231522,0.18207 l 0.189508,0.18209 v 4.33764 c 0,4.14327 0.0038,4.34108 0.08491,4.41448 0.07529,0.0682 0.250119,0.0767 1.543794,0.0754 1.139507,-0.001 1.47667,-0.015 1.540137,-0.0632 z m -0.339994,-4.58296 -0.002,-4.38304 0.14462,-0.10163 c 0.166567,-0.11708 0.589171,-0.55079 0.653145,-0.67032 0.02381,-0.0445 0.0433,-0.12406 0.0433,-0.17681 0,-0.0527 0.01616,-0.0959 0.03587,-0.0959 0.01975,0 0.07719,-0.0767 0.127686,-0.17048 0.0783,-0.14537 0.09181,-0.26124 0.09181,-0.78696 0,-0.43127 -0.01744,-0.63393 -0.05804,-0.67455 -0.03192,-0.032 -0.05803,-0.0942 -0.05803,-0.13832 0,-0.0442 -0.02635,-0.10786 -0.05858,-0.14161 -0.03222,-0.0337 -0.08547,-0.11358 -0.118344,-0.17743 -0.156612,-0.30416 -0.211554,-0.37814 -0.419741,-0.5652 -0.25243,-0.22684 -0.755146,-0.50269 -0.916094,-0.50269 -0.05874,0 -0.11972,-0.0209 -0.135507,-0.0464 -0.0378,-0.0612 -1.030082,-0.0612 -1.067887,0 -0.01577,0.0256 -0.07676,0.0464 -0.135506,0.0464 -0.288906,0 -1.054241,0.55585 -1.224302,0.88919 -0.07234,0.14181 -0.165002,0.2887 -0.200582,0.31799 -0.01552,0.0127 -0.05589,0.13814 -0.08973,0.27858 -0.03384,0.14046 -0.0786,0.27522 -0.09948,0.29948 -0.05443,0.0632 -0.04699,0.75735 0.0085,0.79163 0.02553,0.0157 0.04643,0.0834 0.04643,0.15034 0,0.14807 0.09744,0.43003 0.148617,0.43003 0.02042,0 0.0371,0.0393 0.0371,0.0872 0,0.048 0.03134,0.11318 0.06965,0.14497 0.03831,0.0318 0.06965,0.079 0.06965,0.10483 0,0.0258 0.04701,0.0914 0.104464,0.14563 0.05745,0.0542 0.156698,0.16108 0.220541,0.23747 0.06384,0.0764 0.173644,0.17599 0.243995,0.22135 l 0.12792,0.0825 -0.01183,4.38642 c -0.0078,2.87567 -0.02784,4.39041 -0.05828,4.39801 -0.03064,0.008 -0.05046,-1.46153 -0.05827,-4.32044 l -0.01186,-4.33204 -0.224724,-0.22473 c -0.458201,-0.4582 -0.62413,-0.71036 -0.750165,-1.14005 -0.02997,-0.10215 -0.07349,-0.24989 -0.09671,-0.32831 -0.05681,-0.19179 -0.05382,-0.75016 0.0042,-0.78601 0.02553,-0.0158 0.04643,-0.0996 0.04643,-0.18628 0,-0.1473 0.07802,-0.38798 0.142798,-0.44053 0.01575,-0.0127 0.04206,-0.0754 0.05849,-0.13929 0.01642,-0.0638 0.08755,-0.18386 0.158051,-0.2667 0.07049,-0.0829 0.180407,-0.21532 0.24425,-0.2944 0.12291,-0.15222 0.553439,-0.46035 0.643215,-0.46035 0.02928,0 0.05323,-0.0163 0.05323,-0.0363 0,-0.02 0.09925,-0.0633 0.220544,-0.0963 0.121299,-0.0331 0.268538,-0.0794 0.327196,-0.103 0.135518,-0.0546 0.959294,-0.0563 1.066333,-0.002 0.04434,0.0224 0.1642,0.0659 0.266341,0.0967 0.275909,0.0832 0.48482,0.18487 0.58452,0.28457 0.0488,0.0488 0.115413,0.0887 0.148044,0.0887 0.03263,0 0.09008,0.037 0.127683,0.0822 0.238726,0.28694 0.499105,0.67168 0.618334,0.91364 0.132275,0.26844 0.138644,0.30928 0.142336,0.91246 0.0027,0.41052 -0.01472,0.65418 -0.04924,0.69646 -0.02921,0.0358 -0.08071,0.15902 -0.114446,0.27394 -0.03374,0.11491 -0.109011,0.26095 -0.167294,0.32454 -0.05829,0.0636 -0.105972,0.12842 -0.105972,0.14411 0,0.0594 -0.461028,0.55226 -0.587022,0.6275 -0.08286,0.0495 -0.08666,0.2181 -0.09796,4.3412 -0.0065,2.35935 -0.02261,4.31883 -0.03591,4.3544 -0.01329,0.0356 -0.03444,0.0544 -0.04701,0.0418 -0.01257,-0.0125 -0.02372,-1.9952 -0.02478,-4.40588 z m -0.681712,0.19119 -0.01186,-4.18523 0.151144,-0.18325 c 0.09832,-0.11919 0.183604,-0.17906 0.244005,-0.17128 0.09202,0.0119 0.09297,0.0514 0.104704,4.38162 l 0.01183,4.36964 -0.243991,-0.0131 -0.243996,-0.0131 z m -0.742877,0.0107 0.01186,-4.21352 h 0.185724 0.185719 l 0.01186,4.21352 0.01186,4.21353 h -0.209428 -0.209424 z m -0.595536,4.1671 h -0.158707 v -4.39069 c 0,-2.93781 -0.01589,-4.42039 -0.04806,-4.48049 -0.02644,-0.0494 -0.07345,-0.0901 -0.10447,-0.0905 -0.08883,-0.001 -0.59035,-0.4877 -0.59035,-0.57279 0,-0.0421 -0.01703,-0.0765 -0.03782,-0.0765 -0.05335,0 -0.240765,-0.36271 -0.240765,-0.46596 0,-0.0471 -0.02089,-0.0986 -0.04643,-0.11442 -0.02635,-0.0163 -0.04643,-0.24719 -0.04643,-0.53394 0,-0.28675 0.02007,-0.51766 0.04643,-0.53395 0.02553,-0.0157 0.04652,-0.0641 0.04663,-0.1072 5.84e-4,-0.22616 0.564937,-1.07676 0.714428,-1.07676 0.02553,0 0.102659,-0.0539 0.17143,-0.1198 0.07594,-0.0727 0.200012,-0.12985 0.315949,-0.14541 0.10499,-0.0141 0.190895,-0.0437 0.190895,-0.0659 0,-0.0221 0.09279,-0.0403 0.2062,-0.0403 0.113403,0 0.219103,-0.0209 0.234882,-0.0464 0.01577,-0.0256 0.09936,-0.0465 0.18572,-0.0465 0.08637,0 0.169938,0.0209 0.185722,0.0465 0.01577,0.0256 0.120254,0.0464 0.23215,0.0464 0.111899,0 0.216369,0.0209 0.232153,0.0464 0.01577,0.0256 0.07851,0.0465 0.139395,0.0465 0.06089,0 0.138319,0.0366 0.172079,0.0813 0.06488,0.0859 0.170901,0.16082 0.361758,0.2557 0.166402,0.0827 0.280624,0.18306 0.329936,0.28985 0.02358,0.0511 0.08405,0.15554 0.134361,0.23215 0.128115,0.19507 0.185724,0.33714 0.185724,0.45803 0,0.0571 0.02381,0.12757 0.05288,0.15665 0.06205,0.062 0.05647,0.86353 -0.0068,0.98083 -0.02255,0.0418 -0.05352,0.15431 -0.06884,0.25008 -0.01534,0.0958 -0.04696,0.17411 -0.07032,0.17411 -0.02334,0 -0.06684,0.0813 -0.09663,0.18077 -0.03537,0.11807 -0.149163,0.27251 -0.328075,0.44526 -0.242897,0.23453 -0.302353,0.26834 -0.525073,0.29856 -0.138135,0.0187 -0.281752,0.0595 -0.319142,0.0905 -0.09724,0.0807 -1.098176,0.083 -1.226589,0.003 -0.07957,-0.0497 -0.109848,-0.0496 -0.170209,5.9e-4 -0.11804,0.098 -0.08401,0.20259 0.113407,0.34865 l 0.184623,0.13659 v 4.16205 c 0,2.28912 -0.01458,4.17663 -0.0324,4.19444 -0.01782,0.0178 -0.06132,0.0213 -0.09666,0.008 -0.03534,-0.0136 -0.135672,-0.0247 -0.222971,-0.0247 z m 1.219141,-9.93746 c 0.194018,-0.091 0.479348,-0.43879 0.479348,-0.58429 0,-0.0387 0.01969,-0.10715 0.04374,-0.15209 0.110193,-0.20589 -0.300799,-0.8289 -0.610596,-0.92559 -0.381135,-0.11894 -0.669311,-0.039 -0.954603,0.26496 -0.332924,0.35466 -0.36198,0.73296 -0.08465,1.10206 0.284906,0.37918 0.709944,0.49045 1.126767,0.29495 z m -0.59139,-0.21585 c -0.32597,-0.16261 -0.446595,-0.38124 -0.400405,-0.72569 0.03831,-0.28572 0.237108,-0.44989 0.544771,-0.44989 0.314924,0 0.526587,0.0961 0.61879,0.28092 0.083,0.16637 0.10251,0.50839 0.02901,0.50839 -0.02553,0 -0.04643,0.0277 -0.04643,0.0615 0,0.0758 -0.162283,0.22757 -0.348227,0.3256 -0.17762,0.0936 -0.208177,0.0936 -0.397506,-6.8e-4 z m -4.577694,10.347 c 0.07034,-0.0777 0.07684,-0.44998 0.07684,-4.40082 v -4.31592 l 0.258941,-0.25378 c 0.142416,-0.13958 0.291381,-0.31544 0.331029,-0.3908 0.03966,-0.0754 0.10175,-0.16667 0.137998,-0.20292 0.03624,-0.0362 0.07794,-0.12607 0.09264,-0.1996 0.01472,-0.0735 0.04502,-0.1337 0.06736,-0.1337 0.02235,0 0.04062,-0.0371 0.04062,-0.0825 0,-0.0454 0.03657,-0.1342 0.08125,-0.19733 0.06859,-0.0969 0.08099,-0.21975 0.07959,-0.78803 -0.0014,-0.58105 -0.01417,-0.69549 -0.09286,-0.83574 -0.05016,-0.0894 -0.101756,-0.17295 -0.114657,-0.18572 -0.01291,-0.0127 -0.05241,-0.10679 -0.08779,-0.20894 -0.03538,-0.10214 -0.08198,-0.19721 -0.103549,-0.21126 -0.02156,-0.014 -0.118674,-0.13203 -0.215782,-0.26219 -0.173186,-0.23212 -0.52325,-0.53298 -0.722354,-0.62082 -0.05537,-0.0244 -0.163347,-0.0823 -0.239962,-0.1287 -0.35529,-0.21501 -1.020141,-0.29878 -1.601826,-0.20183 -0.388477,0.0647 -0.502897,0.0989 -0.673235,0.20104 -0.07661,0.0459 -0.207193,0.11439 -0.290188,0.15214 -0.08299,0.0377 -0.150896,0.0858 -0.150896,0.10688 0,0.0211 -0.0711,0.0765 -0.157992,0.12333 -0.08689,0.0468 -0.247222,0.20825 -0.356278,0.35878 -0.109053,0.15054 -0.212241,0.2737 -0.229308,0.2737 -0.01706,0 -0.05754,0.0888 -0.08995,0.19732 -0.0324,0.10853 -0.07336,0.20778 -0.09102,0.22055 -0.01768,0.0127 -0.07162,0.10678 -0.119924,0.20894 -0.12789,0.27046 -0.131857,1.30295 -0.0061,1.60318 0.132409,0.3163 0.279945,0.62277 0.312261,0.64867 0.01592,0.0127 0.06161,0.0859 0.101514,0.1625 0.0399,0.0766 0.189069,0.25349 0.331484,0.39307 l 0.258945,0.25378 v 4.3451 c 0,3.31763 0.01318,4.35829 0.05572,4.40083 0.04103,0.041 0.449284,0.0557 1.548204,0.0557 1.386939,0 1.49793,-0.006 1.569333,-0.0849 z m -0.387454,-4.54623 v -4.34708 l 0.10095,-0.10746 c 0.05552,-0.0591 0.138366,-0.10745 0.184091,-0.10745 0.04572,0 0.10634,-0.0433 0.134709,-0.0964 0.02837,-0.053 0.08656,-0.13409 0.129316,-0.1802 0.141413,-0.15251 0.244586,-0.30173 0.322393,-0.46631 0.04225,-0.0894 0.102235,-0.1886 0.133289,-0.22051 0.08477,-0.0871 0.123435,-0.51185 0.100681,-1.10623 -0.01943,-0.50726 -0.02705,-0.54094 -0.168228,-0.74122 -0.08134,-0.1154 -0.147893,-0.23169 -0.147893,-0.25842 0,-0.0625 -0.58361,-0.64357 -0.766098,-0.76275 -0.21088,-0.13775 -0.391063,-0.20739 -0.536533,-0.20739 -0.07217,0 -0.14413,-0.0209 -0.159915,-0.0464 -0.03771,-0.061 -0.983749,-0.061 -1.021455,0 -0.01577,0.0256 -0.07871,0.0464 -0.139847,0.0464 -0.125989,0 -0.340781,0.0863 -0.432233,0.17357 -0.03375,0.0322 -0.0806,0.0586 -0.104117,0.0586 -0.08486,0 -0.682995,0.6316 -0.791429,0.83573 -0.06105,0.11492 -0.125112,0.21967 -0.142377,0.23277 -0.0872,0.0662 -0.139386,0.50369 -0.122848,1.0298 0.01773,0.56375 0.02039,0.57577 0.199308,0.89614 0.183098,0.32785 0.216778,0.37814 0.357672,0.53404 0.04276,0.0473 0.10095,0.12939 0.129316,0.1824 0.02837,0.053 0.08899,0.0964 0.134705,0.0964 0.04573,0 0.128676,0.0485 0.184334,0.10771 l 0.101186,0.10772 -0.01183,4.34956 c -0.0078,2.86086 -0.02773,4.34957 -0.05827,4.34957 -0.03053,0 -0.05021,-1.45056 -0.05746,-4.23675 -0.0086,-3.28643 -0.0241,-4.26276 -0.06928,-4.3528 -0.03202,-0.0639 -0.173315,-0.23213 -0.313975,-0.37399 -0.285298,-0.28772 -0.557531,-0.65612 -0.557531,-0.75446 0,-0.0354 -0.03656,-0.13558 -0.08125,-0.2225 -0.06638,-0.1291 -0.08125,-0.28124 -0.08125,-0.83126 0,-0.61239 0.0094,-0.68995 0.104464,-0.85827 0.05746,-0.10176 0.104573,-0.21668 0.104699,-0.25536 5.84e-4,-0.13071 0.631599,-0.80721 0.867027,-0.92929 0.123117,-0.0638 0.234297,-0.12806 0.247063,-0.14273 0.01277,-0.0146 0.127683,-0.0543 0.255363,-0.0881 0.127686,-0.0338 0.252004,-0.0793 0.276266,-0.10103 0.02424,-0.0217 0.251338,-0.0396 0.50463,-0.0396 0.353686,0 0.531946,0.024 0.768414,0.10369 0.169341,0.057 0.318338,0.11448 0.331104,0.12767 0.01277,0.0132 0.12416,0.0762 0.24754,0.14007 0.266602,0.13796 0.824262,0.76184 0.882342,0.98712 0.02133,0.0827 0.07356,0.18917 0.11607,0.23652 0.117339,0.13069 0.114122,1.48662 -0.0039,1.66695 -0.04469,0.0682 -0.08126,0.16589 -0.08126,0.21698 0,0.0511 -0.05815,0.1615 -0.129228,0.24538 -0.07108,0.0839 -0.180767,0.23073 -0.243757,0.32631 -0.06299,0.0956 -0.128495,0.17394 -0.145564,0.17411 -0.01706,0 -0.116311,0.0769 -0.220547,0.17044 l -0.189498,0.17013 v 4.30263 c 0,2.36644 -0.01335,4.31598 -0.02969,4.33231 -0.01633,0.0163 -0.04768,0.0186 -0.06965,0.005 -0.02197,-0.0136 -0.03996,-1.98089 -0.03996,-4.37177 z m -0.696454,0.1872 v -4.15987 l 0.193449,-0.17859 c 0.106389,-0.0982 0.210859,-0.17858 0.232147,-0.17858 0.0213,0 0.0387,1.92049 0.0387,4.26775 0,2.34727 0.01221,4.29959 0.02714,4.3385 0.02162,0.0563 -0.01864,0.0737 -0.197325,0.0851 -0.123461,0.008 -0.240146,0.008 -0.259295,0 -0.01917,-0.008 -0.03483,-1.88631 -0.03483,-4.17424 z m -0.638651,-0.002 0.01186,-4.21352 h 0.162505 0.162502 l 0.01186,4.21352 0.01186,4.21351 h -0.186209 -0.186212 z m -0.893533,2.55033 c 0,-1.39585 0.01037,-1.65034 0.06965,-1.70962 0.100476,-0.10048 0.101732,-1.44217 0.0014,-1.57472 -0.05722,-0.0756 -0.06841,-0.38608 -0.06965,-1.93248 l -0.0014,-1.84236 0.104471,-0.0161 c 0.07428,-0.0114 0.154597,0.038 0.277921,0.17088 l 0.173458,0.18696 5.84e-4,4.15935 c 5.84e-4,2.28765 -0.008,4.16806 -0.0187,4.1787 -0.01064,0.0106 -0.136009,0.0193 -0.278585,0.0193 h -0.259228 v -1.63998 z m 0.458499,-7.23578 c -0.04148,-0.0362 -0.09372,-0.0609 -0.116071,-0.0547 -0.02235,0.006 -0.138145,-0.005 -0.257324,-0.0236 -0.155289,-0.0249 -0.237811,-0.0669 -0.29126,-0.1485 -0.04101,-0.0626 -0.116383,-0.11381 -0.167501,-0.11381 -0.05348,0 -0.110076,-0.0444 -0.133298,-0.10447 -0.0222,-0.0574 -0.0948,-0.15512 -0.161354,-0.21703 -0.06655,-0.0619 -0.120999,-0.14947 -0.120999,-0.19458 0,-0.0451 -0.02088,-0.0949 -0.04643,-0.11072 -0.02553,-0.0158 -0.04643,-0.0797 -0.04643,-0.14204 0,-0.0623 -0.02088,-0.11333 -0.04643,-0.11333 -0.02553,0 -0.04642,-0.0813 -0.04642,-0.18076 0,-0.11784 -0.02425,-0.19005 -0.06965,-0.20747 -0.05131,-0.0197 -0.06965,-0.10083 -0.06965,-0.30822 0,-0.20738 0.01834,-0.28853 0.06965,-0.30822 0.03896,-0.015 0.06965,-0.084 0.06965,-0.15666 0,-0.12636 0.173831,-0.51776 0.243756,-0.54884 0.01916,-0.009 0.03483,-0.0584 0.03483,-0.11088 0,-0.0914 0.530649,-0.63661 0.621681,-0.63877 0.02273,-5.7e-4 0.06525,-0.0337 0.09449,-0.0737 0.02924,-0.04 0.141241,-0.0845 0.248874,-0.099 0.107637,-0.0145 0.195701,-0.0424 0.195701,-0.0621 0,-0.0352 0.375103,-0.0929 0.603584,-0.0929 0.228478,0 0.603584,0.0577 0.603584,0.0929 0,0.0197 0.08806,0.0476 0.195701,0.0621 0.107639,0.0144 0.219632,0.059 0.24888,0.099 0.02924,0.04 0.07177,0.0732 0.09449,0.0737 0.05712,10e-4 0.621681,0.53341 0.621681,0.58588 0,0.0234 0.06268,0.16333 0.139293,0.31099 0.08632,0.16636 0.139287,0.33859 0.139287,0.45287 0,0.12107 0.02392,0.19357 0.06965,0.21112 0.04886,0.0187 0.06965,0.095 0.06965,0.25537 0,0.16039 -0.02077,0.23661 -0.06965,0.25536 -0.0454,0.0174 -0.06965,0.0896 -0.06965,0.20747 0,0.0994 -0.02088,0.18076 -0.04643,0.18076 -0.02553,0 -0.04642,0.0405 -0.04642,0.0901 0,0.0495 -0.02088,0.10302 -0.04643,0.11881 -0.02553,0.0157 -0.04643,0.0645 -0.04643,0.10823 0,0.0437 -0.05903,0.15221 -0.131174,0.24102 -0.07215,0.0888 -0.144623,0.19803 -0.16105,0.24272 -0.01642,0.0447 -0.07089,0.0813 -0.121023,0.0813 -0.05014,0 -0.136344,0.0634 -0.191578,0.14102 -0.07255,0.10189 -0.124957,0.13323 -0.188877,0.11295 -0.05039,-0.016 -0.08847,-0.006 -0.08847,0.023 0,0.0765 -0.198613,0.13855 -0.26697,0.0835 -0.03919,-0.0316 -0.07747,-0.0307 -0.117853,0.003 -0.128526,0.10667 -1.071901,0.0888 -1.199592,-0.0227 z m 0.911618,-1.03775 c 0.01601,-0.026 0.100825,-0.0771 0.188456,-0.1137 0.08763,-0.0366 0.15933,-0.087 0.15933,-0.11206 0,-0.025 0.02638,-0.0731 0.05865,-0.10684 0.151547,-0.15856 0.219938,-0.3269 0.219938,-0.54136 0,-0.19042 -0.02854,-0.26647 -0.173512,-0.46242 -0.215239,-0.29091 -0.363404,-0.38065 -0.682932,-0.41363 -0.339026,-0.035 -0.59382,0.0914 -0.826636,0.40992 -0.148846,0.20366 -0.174112,0.27361 -0.174112,0.48203 0,0.16008 0.02392,0.26366 0.06964,0.30161 0.03831,0.0317 0.06965,0.0866 0.06965,0.12175 0,0.0352 0.01735,0.064 0.03858,0.064 0.02124,0 0.06513,0.0496 0.09756,0.1102 0.08712,0.16278 0.412205,0.30767 0.690334,0.30767 0.129757,0 0.249038,-0.0212 0.265061,-0.0471 z m -0.487948,-0.25466 c -0.03179,-0.0383 -0.08552,-0.0696 -0.119395,-0.0696 -0.03388,0 -0.118426,-0.0745 -0.187886,-0.16558 -0.101333,-0.13285 -0.125238,-0.21157 -0.120985,-0.39837 0.0046,-0.20421 0.026,-0.25231 0.173659,-0.39159 0.152748,-0.14406 0.193942,-0.15878 0.444313,-0.15878 0.246672,0 0.29339,0.016 0.440292,0.15089 0.144844,0.133 0.164963,0.17905 0.169596,0.38818 0.0061,0.27823 -0.112948,0.48315 -0.334087,0.57474 -0.07728,0.032 -0.140499,0.0766 -0.140499,0.099 0,0.0687 -0.263494,0.0453 -0.325008,-0.0289 z m -1.967435,-3.20212 c 0.01437,-0.0375 0.01802,-0.0925 0.0081,-0.1223 -0.0099,-0.0298 -0.307889,-0.2133 -0.662114,-0.40779 -0.642972,-0.35302 -0.644158,-0.35398 -0.706531,-0.57122 -0.104958,-0.36556 -0.449136,-0.54037 -0.76696,-0.38955 -0.411433,0.19523 -0.416919,0.78433 -0.0091,0.97784 0.188098,0.0893 0.2958,0.0886 0.525008,-0.003 l 0.18363,-0.0735 0.631959,0.32884 c 0.347575,0.18086 0.662989,0.32883 0.700932,0.32883 0.03793,0 0.08074,-0.0307 0.09511,-0.0681 z m -2.088726,-0.86964 c -0.03341,-0.0534 -0.03455,-0.12081 -0.0036,-0.20894 0.03818,-0.10859 0.0723,-0.13013 0.206028,-0.13013 0.13258,0 0.167951,0.0218 0.204681,0.12627 0.08642,0.24573 -0.269935,0.43197 -0.407142,0.2128 z m 7.318544,0.60961 0.546238,-0.27689 0.228814,0.0748 c 0.27883,0.0912 0.510131,0.0345 0.644147,-0.15799 0.136541,-0.1961 0.151366,-0.33351 0.05861,-0.54321 -0.08744,-0.19769 -0.308292,-0.34722 -0.512786,-0.34722 -0.262567,0 -0.512067,0.26377 -0.513834,0.54324 -8.86e-4,0.11924 -0.04908,0.15495 -0.584356,0.43179 -0.320944,0.16598 -0.593155,0.31703 -0.604913,0.33565 -0.03293,0.0521 0.07194,0.22181 0.135442,0.2191 0.03103,-0.001 0.302207,-0.12701 0.602638,-0.27931 z m 0.815501,-0.53801 c -0.105358,-0.0953 -0.10794,-0.19219 -0.0081,-0.30254 0.0943,-0.10421 0.263084,-0.1098 0.360923,-0.0119 0.09397,0.094 0.09263,0.1998 -0.0039,0.30644 -0.09556,0.10559 -0.23759,0.10887 -0.34898,0.008 z m -5.147621,-0.36202 c 0.07437,-0.0896 0.06605,-0.10269 -0.566313,-0.89022 -0.382287,-0.4761 -0.476646,-0.62186 -0.448735,-0.69317 0.0632,-0.16149 0.04316,-0.41242 -0.04342,-0.54372 -0.130557,-0.198 -0.244987,-0.26317 -0.464908,-0.26477 -0.168813,-10e-4 -0.227897,0.0245 -0.359836,0.15638 -0.137624,0.13763 -0.157861,0.18776 -0.157861,0.39108 0,0.19649 0.02162,0.25486 0.137329,0.37056 0.128528,0.12852 0.419467,0.22922 0.506643,0.17534 0.06705,-0.0414 0.176125,0.0715 0.691122,0.71549 0.275491,0.34449 0.533705,0.63267 0.573804,0.64039 0.0401,0.008 0.09958,-0.0181 0.132173,-0.0574 z m -1.68953,-1.67701 c -0.09937,-0.0994 -0.09164,-0.23337 0.0199,-0.34491 0.107263,-0.10726 0.183776,-0.11646 0.289709,-0.0348 0.175585,0.13532 0.07012,0.4527 -0.150417,0.4527 -0.04743,0 -0.119064,-0.0328 -0.159195,-0.073 z m 4.794649,1.08245 c 0.226588,-0.33855 0.441114,-0.63908 0.476728,-0.66786 0.03562,-0.0288 0.132722,-0.0668 0.215802,-0.0846 0.08308,-0.0178 0.213658,-0.0949 0.290186,-0.17144 0.193556,-0.19356 0.197719,-0.50641 0.0097,-0.73159 -0.107506,-0.12878 -0.1689,-0.1588 -0.362755,-0.17744 -0.216556,-0.0208 -0.245667,-0.0108 -0.404535,0.13904 -0.14756,0.13916 -0.170966,0.18954 -0.169543,0.3649 8.86e-4,0.1119 0.03031,0.25524 0.06535,0.31853 0.07773,0.14042 0.06485,0.16847 -0.419957,0.91519 -0.188914,0.29097 -0.343491,0.54832 -0.343491,0.57188 0,0.0396 0.146657,0.13898 0.205066,0.13898 0.014,0 0.210836,-0.277 0.437421,-0.61556 z m 0.468785,-1.10398 c -0.113891,-0.0609 -0.125919,-0.34602 -0.01636,-0.38806 0.273835,-0.10507 0.475419,0.0912 0.326729,0.31814 -0.08315,0.12691 -0.168111,0.14605 -0.310357,0.0699 z m -2.225591,0.67522 v -0.8586 l 0.139657,-0.12443 c 0.186972,-0.16659 0.255989,-0.42491 0.169099,-0.63288 -0.132842,-0.31794 -0.468007,-0.44582 -0.765391,-0.29203 -0.170411,0.0881 -0.263972,0.27693 -0.258573,0.52179 0.0048,0.21896 0.09336,0.35171 0.308841,0.46314 l 0.127791,0.0661 v 0.85776 0.85776 h 0.139289 0.139287 z m -0.328058,-1.23238 c -0.101782,-0.0544 -0.12238,-0.27223 -0.0341,-0.36052 0.07183,-0.0718 0.281044,-0.0718 0.352869,0 0.08352,0.0835 0.0678,0.30407 -0.02553,0.35843 -0.104867,0.0611 -0.181982,0.0616 -0.293235,0.002 z"
       id="path1030"
       inkscape:connector-curvature="0" />
    <rect
       style="opacity:1;fill:#000000;fill-opacity:0;stroke:#000000;stroke-width:0.15327561;stroke-linejoin:round;stroke-miterlimit:4;stroke-dasharray:none;stroke-opacity:1;paint-order:fill markers stroke"
       id="rect846-6"
       width="40.140007"
       height="89.531776"
       x="-143.47673"
       y="244.97884" />
    <text
       xml:space="preserve"
       style="font-style:normal;font-variant:normal;font-weight:bold;font-stretch:normal;font-size:4.91384172px;line-height:1.25;font-family:'Noto Sans';-inkscape-font-specification:'Noto Sans, Bold';font-variant-ligatures:normal;font-variant-caps:normal;font-variant-numeric:normal;font-feature-settings:normal;text-align:start;letter-spacing:0px;word-spacing:0px;writing-mode:lr-tb;text-anchor:start;fill:#000000;fill-opacity:1;stroke:none;stroke-width:0.12284225"
       x="-139.87688"
       y="278.26407"
       id="text855"><tspan
         sodipodi:role="line"
         id="tspan867"
         x="-139.87688"
         y="278.26407"> Connect </tspan><tspan
         sodipodi:role="line"
         id="tspan869"
         x="-139.87688"
         y="284.40637">   GNU-BOX</tspan><tspan
         sodipodi:role="line"
         id="tspan871"
         x="-139.87688"
         y="290.54868"></tspan><tspan
         sodipodi:role="line"
         id="tspan873"
         x="-139.87688"
         y="296.69098"> Dmarrage</tspan><tspan
         sodipodi:role="line"
         id="tspan875"
         x="-139.87688"
         y="302.83328">192.168.0.69</tspan></text>
    <text
       xml:space="preserve"
       style="font-style:normal;font-variant:normal;font-weight:600;font-stretch:normal;font-size:12.69999981px;line-height:1.25;font-family:FreeSans;-inkscape-font-specification:'FreeSans, Semi-Bold';font-variant-ligatures:normal;font-variant-caps:normal;font-variant-numeric:normal;font-feature-settings:normal;text-align:start;letter-spacing:0px;word-spacing:0px;writing-mode:lr-tb;text-anchor:start;fill:#000000;fill-opacity:1;stroke:none;stroke-width:0.26458332"
       x="-137.23788"
       y="259.85809"
       id="text833"><tspan
         sodipodi:role="line"
         id="tspan831"
         x="-137.23788"
         y="259.85809"
         style="font-style:normal;font-variant:normal;font-weight:600;font-stretch:normal;font-size:12.69999981px;font-family:FreeSans;-inkscape-font-specification:'FreeSans, Semi-Bold';font-variant-ligatures:normal;font-variant-caps:normal;font-variant-numeric:normal;font-feature-settings:normal;text-align:start;writing-mode:lr-tb;text-anchor:start;stroke-width:0.26458332">WIFI</tspan></text>
    <rect
       y="245.23178"
       x="-74.975151"
       height="89.531776"
       width="40.140007"
       id="rect1564"
       style="opacity:1;fill:#000000;fill-opacity:0;stroke:#000000;stroke-width:0.15327561;stroke-linejoin:round;stroke-miterlimit:4;stroke-dasharray:none;stroke-opacity:1;paint-order:fill markers stroke" />
    <g
       transform="matrix(0.05415616,0,0,0.05415616,-60.659864,254.56919)"
       inkscape:label="Calque 1"
       id="g1570">
      <path
         style="fill:#000000;stroke-width:0.28222224"
         d="m 19.718941,287.09434 c -0.0854,-0.22252 -0.8238,-2.56078 -1.64091,-5.19613 l -1.48564,-4.79154 1.85876,-0.17613 c 18.08951,-1.71409 55.93315,-4.31897 76.08322,-5.23701 18.668829,-0.85055 51.691129,-1.42401 82.000949,-1.42401 h 20.02238 l -0.006,2.61055 c -0.0102,4.31048 -1.2027,6.08077 -3.86886,5.7436 -6.82486,-0.86308 -58.09403,-1.20687 -76.27606,-0.51147 -28.617269,1.09451 -48.318599,2.59143 -69.708889,5.29651 -9.23359,1.16771 -22.75951,3.20891 -26.18231,3.95118 -0.39901,0.0865 -0.69984,-0.0138 -0.79646,-0.26555 z m 12.02098,-20.79155 c -7.37517,-0.79786 -12.9831,-3.39393 -17.95078,-8.30994 -5.0546896,-5.00211 -6.8746996,-9.19118 -7.7324696,-17.79764 -0.8496,-8.52451 1.81805,-18.11672 7.2986196,-26.24407 9.15118,-13.57061 24.8935,-21.42341 40.41959,-20.16265 6.41692,0.52107 11.75225,1.31167 12.74225,1.88816 2.14145,1.24702 1.96679,2.57507 -0.9817,7.46459 l -1.98163,3.28616 -1.97733,-0.67253 c -9.79778,-3.33244 -21.10359,-1.77474 -30.09065,4.14587 -6.44799,4.24788 -11.89618,11.84073 -14.055,19.58767 -0.71124,2.55232 -0.7861,3.25406 -0.78276,7.33777 0.003,3.49776 0.11946,4.92904 0.51731,6.35 2.02394,7.22866 6.32542,11.15522 14.11864,12.88803 4.44157,0.98758 15.05765,0.27036 19.59301,-1.32369 4.13283,-1.45257 6.83298,-4.48939 6.8239,-7.67472 -0.004,-1.49289 -1.48411,-4.98366 -2.97205,-7.01062 -2.32934,-3.1732 -7.27145,-6.31915 -12.12495,-7.71827 -1.93325,-0.55729 -2.33327,-0.78193 -2.79448,-1.56928 -1.12962,-1.92839 -1.69864,-6.81617 -1.0057,-8.63874 l 0.29049,-0.76404 2.88451,0.15813 c 9.28308,0.50889 18.84678,6.85598 24.23693,16.08518 4.18578,7.16706 3.38286,15.71324 -1.97909,21.06506 -3.15246,3.1465 -9.54731,5.96948 -16.41821,7.24774 -2.8609,0.53224 -12.55916,0.76255 -16.07845,0.38183 z m 89.822089,-1.68709 c -3.12399,-0.63223 -4.8489,-2.32838 -6.99515,-6.87853 -0.81924,-1.73685 -2.3057,-4.42184 -3.30322,-5.96666 -3.16826,-4.90651 -5.99326,-9.94906 -11.929779,-21.29433 -1.66504,-3.18205 -3.87045,-7.30955 -4.9009,-9.17222 l -1.87356,-3.38667 -0.17873,1.69334 c -0.0983,0.93133 -0.57473,3.95642 -1.05872,6.72242 -1.11183,6.35409 -1.43181,11.96572 -1.43883,25.23387 l -0.005,10.22518 -0.77612,0.21704 c -0.89536,0.25039 -2.96534,0.22198 -8.07739,-0.11088 l -3.63239,-0.23652 0.0416,-8.04333 c 0.0443,-8.55513 0.6954,-23.09654 1.18139,-26.38445 0.16087,-1.08839 0.52911,-3.24889 0.8183,-4.80111 0.79403,-4.26187 1.18384,-9.92974 1.24223,-18.06222 0.0637,-8.87606 0.0433,-8.81083 3.3646,-10.72286 1.16718,-0.67193 1.57028,-0.7605 2.85676,-0.62773 0.82381,0.085 1.99896,0.41025 2.61143,0.72271 1.26757,0.64667 3.03302,2.48035 3.3414,3.47057 0.11412,0.36641 0.63411,1.14169 1.15556,1.72285 0.52144,0.58116 2.1574,3.47275 3.63546,6.42575 3.285239,6.56357 5.793789,11.1463 12.897699,23.56204 3.01966,5.27756 6.24209,10.99256 7.16097,12.7 l 1.67068,3.10445 0.20476,-3.24556 c 0.11262,-1.78506 0.13309,-6.03956 0.0455,-9.45444 -0.11653,-4.54256 0.004,-9.16285 0.44792,-17.21556 0.33395,-6.05367 0.61667,-12.65312 0.62825,-14.66546 0.0209,-3.63514 0.0263,-3.66398 0.82633,-4.46405 l 0.80527,-0.80527 2.89543,0.1887 c 1.59249,0.10379 4.09393,0.27111 5.55876,0.37184 l 2.66333,0.18313 -0.0655,1.83444 c -0.036,1.00895 -0.31695,6.72395 -0.62425,12.7 -0.3073,5.97606 -0.67878,16.96156 -0.8255,24.41223 -0.14672,7.45066 -0.33249,14.18166 -0.41282,14.95777 -0.0803,0.77611 -0.28348,3.37961 -0.45145,5.78556 -0.34522,4.94462 -0.75328,6.20336 -2.46964,7.61813 -1.70051,1.4017 -4.78525,2.14099 -7.03429,1.68583 z m 35.71791,-0.8288 c -3.34685,-0.70586 -5.7924,-1.97638 -8.28518,-4.30436 -4.00003,-3.73559 -6.22205,-8.5636 -6.91855,-15.03266 -0.24676,-2.29187 -0.22052,-3.83135 0.13031,-7.64559 0.51923,-5.6452 0.89369,-11.8152 1.29182,-21.28588 0.47424,-11.28121 1.21236,-20.49895 1.67974,-20.97694 0.72551,-0.74201 5.9029,-1.00126 8.92392,-0.44686 2.29902,0.4219 4.35572,1.33582 4.35572,1.93551 0,0.26399 -0.18548,1.7406 -0.41218,3.28135 -0.57144,3.88368 -0.93594,8.46807 -1.27738,16.06582 -0.16044,3.57012 -0.53881,9.66612 -0.84083,13.54667 -0.89312,11.47547 -0.9525,13.53067 -0.46823,16.20716 1.35245,7.47488 6.08226,10.32303 11.98873,7.21926 1.99919,-1.05054 4.50662,-3.33124 5.8613,-5.33129 4.43343,-6.54553 7.71002,-26.47678 7.72367,-46.98255 0.003,-3.74992 0.0395,-4.03627 0.49659,-3.8426 0.27164,0.11509 2.55041,0.24653 5.06393,0.2921 3.81882,0.0692 4.77752,0.17463 5.83231,0.6412 2.40231,1.06266 2.35215,0.69561 1.62068,11.85986 -1.51597,23.13814 -3.38586,33.27867 -7.55337,40.96242 -2.25827,4.16362 -6.37773,8.48723 -10.29041,10.80036 -5.44955,3.22171 -12.60301,4.36982 -18.92259,3.03702 z M -22.023409,235.39375 c -2.33216,-1.29933 -6.38529,-3.01381 -14.67556,-6.20777 -8.13025,-3.13231 -14.03516,-5.88308 -17.5576,-8.17913 -4.65402,-3.03364 -7.9993,-6.89115 -9.40982,-10.85067 -0.35942,-1.00894 -1.11927,-2.53294 -1.68856,-3.38666 -6.95933,-10.43646 -10.49145,-24.28009 -9.32495,-36.54778 1.7371,-18.26837 11.01768,-33.88186 26.29459,-44.23758 4.74572,-3.21697 11.42203,-6.52228 16.2019,-8.02124 1.24177,-0.38942 2.89277,-1.00217 3.66889,-1.36165 4.07849,-1.88914 12.83042,-4.21602 19.3322204,-5.13988 5.56988,-0.79145 21.9915396,-0.70241 29.0688896,0.15761 17.63246,2.14263 35.47268,6.72443 45.99426,11.81245 l 4.36649,2.11154 -0.97982,0.82311 c -0.5389,0.45271 -1.68793,1.26193 -2.55339,1.79826 -7.50618,4.65156 -16.51717,6.16619 -32.2931,5.42803 -9.72444,-0.455 -29.1895796,-0.32859 -32.1733296,0.20895 -3.83395,0.6907 -7.15789,1.54398 -9.4343,2.42186 -4.8895004,1.88559 -9.9278504,5.70747 -13.0381404,9.89017 -0.79912,1.07466 -1.55195,1.95393 -1.67295,1.95393 -0.121,0 -1.25824,0.9767 -2.52721,2.17045 -2.5012,2.35295 -4.10001,4.50366 -5.37755,7.23385 -2.74253,5.86098 -2.79015,13.43763 -0.12567,19.99496 2.97991,7.33359 9.40634,13.05998 16.307,14.53065 4.2066804,0.89652 9.6123204,0.0688 13.98216043,-2.1411 4.22450997,-2.13635 6.62253997,-4.1235 19.10220957,-15.82921 11.23263,-10.536 16.54778,-14.99307 22.88682,-19.19199 11.4506,-7.58477 22.78479,-10.92481 33.71207,-9.93453 6.16966,0.55912 11.99012,2.09504 14.66223,3.86911 0.54327,0.36069 1.43227,0.74469 1.97555,0.85333 0.54328,0.10864 1.62278,0.55218 2.39889,0.98564 3.14687,1.75752 8.445439,2.57391 15.804449,2.43508 5.89255,-0.11116 9.00777,-0.55877 18.91739,-2.71813 15.82746,-3.44891 18.04418,-3.78225 25.10928,-3.77575 4.43655,0.004 5.85859,0.11145 8.23761,0.62197 5.46418,1.17259 9.51492,2.88333 14.21623,6.0039 2.75591,1.82929 5.95912,4.91555 19.59742,18.88198 8.41466,8.6171 11.83286,11.19939 16.60894,12.54724 0.90822,0.25631 2.36872,0.78533 3.24555,1.17561 4.07557,1.81404 18.17576,1.59301 21.22997,-0.33279 1.44992,-0.91424 2.53549,-2.0724 4.2797,-4.56598 1.73753,-2.48398 2.40369,-4.61817 2.73691,-8.76822 1.07614,-13.40344 -6.98556,-25.0546 -22.70122,-32.80885 -15.31586,-7.55698 -33.82069,-9.49048 -50.8844,-5.31671 l -3.52008,0.86101 -2.14887,-0.75694 c -3.20423,-1.12869 -5.80572,-2.58753 -7.08055,-3.97055 -0.98244,-1.06583 -1.1361,-1.40764 -1.1361,-2.52724 0,-1.18682 0.12347,-1.41737 1.48166,-2.76659 3.20664,-3.18545 11.01223,-6.23492 22.46739,-8.77749 17.75408,-3.94066 31.07909,-4.41338 44.80463,-1.58949 29.11266,5.98964 51.72256,25.89861 56.0274,49.33448 0.51255,2.7903 0.60492,4.28447 0.57689,9.33103 -0.0473,8.5142 -0.7419,13.17496 -2.89376,19.41554 -6.68285,19.38103 -22.61365,33.67891 -43.44199,38.98919 -3.99945,1.01968 -4.21363,1.04354 -9.44843,1.05271 l -5.35618,0.009 -1.45605,-2.11667 c -0.80083,-1.16416 -3.45135,-5.41866 -5.89003,-9.45444 -10.65063,-17.62573 -15.74079,-23.82184 -23.94042,-29.14203 -4.5439,-2.94823 -8.07053,-4.36692 -15.71556,-6.32206 -9.39628,-2.40301 -12.78728,-2.65541 -29.91555,-2.22666 -13.07774,0.32736 -16.36953,0.55115 -19.28533,1.31115 -1.74568,0.45502 -2.68494,0.44955 -8.79579,-0.0511 -1.24178,-0.10175 -2.4538,-0.35615 -2.69338,-0.56534 -0.5656,-0.49385 -4.80632,-2.46496 -6.61995,-3.077 -5.91242,-1.99524 -11.607439,-1.67704 -17.356669,0.96977 -2.94263,1.35471 -4.02674,1.46253 -14.39333,1.43151 -4.11339,-0.0123 -9.06639,0.1112 -11.00667,0.27445 -25.13238,2.11466 -46.79332,11.28583 -58.6318196,24.82452 -5.23937997,5.99182 -8.486,12.60897 -9.9304,20.23976 -0.31831,1.68164 -0.91197,4.10527 -1.31924,5.38586 l -0.74048,2.32833 -7.2340304,-0.0328 -7.23403,-0.0328 z"
         id="path1566"
         inkscape:connector-curvature="0" />
      <path
         style="fill:#000000;stroke-width:0.36308348"
         d="m -47.430882,125.23576 c -0.498861,-0.47406 -1.193349,-1.09766 -1.543366,-1.3858 -0.350017,-0.28808 -1.883345,-1.69781 -3.407468,-3.13256 -1.52406,-1.43473 -3.193448,-2.93171 -3.70973,-3.32671 -0.516331,-0.39494 -0.938733,-0.79355 -0.938733,-0.88583 0,-0.0925 -0.591256,-0.65775 -1.313921,-1.25674 -0.722712,-0.59896 -2.314585,-2.02735 -3.537581,-3.17424 -1.222966,-1.14683 -2.640838,-2.45916 -3.150711,-2.91626 -0.509939,-0.4571 -1.336889,-1.19791 -1.837652,-1.64626 -0.500764,-0.44833 -2.162704,-1.98903 -3.693173,-3.42379 -1.530468,-1.43473 -3.2051,-2.93171 -3.72138,-3.3267 -0.51633,-0.39495 -0.93873,-0.805492 -0.93873,-0.912252 0,-0.10664 -0.42881,-0.51734 -0.95245,-0.912295 -0.82094,-0.618968 -2.31358,-1.980404 -7.54152,-6.878694 -0.55381,-0.51888 -1.2876,-1.179187 -1.63069,-1.467338 -0.34332,-0.28808 -1.8895,-1.696336 -3.43645,-3.129282 -1.54699,-1.432982 -3.26756,-2.991248 -3.82343,-3.462917 -0.55592,-0.471632 -1.46385,-1.280122 -2.01762,-1.79666 -0.55381,-0.516538 -2.26291,-2.112963 -3.79803,-3.547722 -1.5351,-1.434725 -3.219703,-2.931756 -3.743533,-3.326706 -0.52384,-0.394938 -0.95244,-0.805489 -0.95244,-0.91224 0,-0.648216 -2.28967,-1.79413 -3.59656,-1.799946 -0.80141,-0.0035 -2.91254,-0.216826 -4.69141,-0.474046 -2.85255,-0.412316 -4.33527,-0.724392 -7.75476,-1.63217 -2.59959,-0.690118 -7.00835,-2.894586 -10.01621,-5.00829 -3.04681,-2.141078 -3.59383,-2.707288 -5.19778,-5.380234 -2.08904,-3.481176 -2.1143,-3.534323 -3.20742,-6.737157 -1.12997,-3.310987 -1.19968,-11.852317 -0.12129,-14.836441 2.25276,-6.232535 2.78736,-7.366581 5.51429,-11.696915 2.25819,-3.586011 8.2041,-10.777693 10.44442,-12.632787 0.34955,-0.28961 1.63311,-1.463288 2.85237,-2.608578 4.10856,-3.8593728 15.80354,-13.0058962 16.6296,-13.0058962 0.19673,0 0.35718,-0.1166778 0.35718,-0.2591871 0,-0.1424976 0.93735,-0.8356176 2.082983,-1.5402876 1.14567,-0.7046702 2.28275,-1.4389158 2.52686,-1.6316637 1.05973,-0.8368067 10.35261,-6.3512254 10.70311,-6.3512254 0.21296,0 0.44791,-0.122082 0.52187,-0.271137 0.19673,-0.395986 6.216,-3.641841 6.75342,-3.641841 0.25118,0 0.45651,-0.129017 0.45651,-0.286538 0,-0.157521 0.54579,-0.468854 1.21287,-0.691684 0.66709,-0.222994 1.21288,-0.534139 1.21288,-0.69173 0,-0.157521 0.16904,-0.286538 0.37533,-0.286538 0.36148,0 5.275535,-2.244687 5.68905,-2.598652 0.8803,-0.753425 20.695978,-8.621085 26.279033,-10.433888 1.22295,-0.397105 2.678395,-0.909521 3.234314,-1.138673 0.555921,-0.229153 2.152428,-0.730467 3.547859,-1.11402 1.395433,-0.383589 2.850879,-0.835806 3.234316,-1.005065 1.24315,-0.548774 12.325703,-3.57645 18.890372,-5.160795 17.6420443,-4.257702 38.173563,-7.71373 47.590547,-8.010899 1.937463,-0.06123 3.756767,-0.263802 4.042948,-0.450404 0.617372,-0.402615 7.692873,-1.150495 18.309042,-1.935191 10.969365,-0.81081 43.890858,-0.815814 55.185886,-0.0083 15.75656,1.126381 29.71696,2.543963 39.21636,3.982184 1.66771,0.252641 4.66957,0.698618 6.67082,0.99136 2.00125,0.292696 4.73024,0.720377 6.06439,0.950307 1.33418,0.229917 3.88121,0.668312 5.66007,0.974135 1.77893,0.305799 4.16002,0.764093 5.29135,1.018322 1.13137,0.254184 2.3707,0.46219 2.75408,0.46219 0.38347,0 1.55,0.205275 2.59237,0.456068 1.0424,0.250721 3.07783,0.702821 4.52317,1.004335 3.36812,0.702633 8.54419,1.869105 13.1395,2.961096 4.44772,1.056904 19.88556,5.212022 21.83179,5.876048 0.66708,0.227611 2.75928,0.875402 4.64937,1.439576 1.89004,0.564138 3.80032,1.153885 4.24507,1.310512 0.44457,0.156744 2.44595,0.826257 4.44719,1.488023 7.68993,2.542846 22.81691,8.508434 23.10373,9.111356 0.21249,0.446095 1.65768,1.002792 2.2665,0.872975 0.53361,-0.113616 3.2,1.172629 3.75482,1.811602 0.29414,0.338907 1.28001,0.796022 2.19052,1.016085 0.91062,0.219898 2.31292,0.759854 3.11635,1.199591 0.80345,0.439702 1.70829,0.799484 2.01079,0.799484 0.30274,0 0.55003,0.123248 0.55003,0.273834 0,0.150585 0.46653,0.445164 1.03673,0.654713 1.37233,0.5042814 7.47228,3.7446027 10.35381,5.4999377 1.26172,0.7685662 2.38332,1.3974015 2.49252,1.3974015 0.10934,0 0.62329,0.2884567 1.14248,0.6408917 0.5192,0.352388 2.94524,1.91986119 5.39125,3.48313112 5.76862,3.68687538 5.71656,3.64901178 13.20797,9.60713598 3.52012,2.799572 6.40017,5.257386 6.40017,5.461767 0,0.204509 0.14465,0.371649 0.32139,0.371649 0.17665,0 0.98158,0.698431 1.78873,1.552074 0.80713,0.853631 1.86439,1.917436 2.34945,2.364025 0.48505,0.44659 1.44332,1.472306 2.12956,2.279337 0.68622,0.807043 1.3947,1.516258 1.5744,1.576021 0.17954,0.05969 0.3266,0.24918 0.3266,0.420794 0,0.365869 1.67974,2.355136 2.12254,2.513882 0.16665,0.05969 0.30321,0.231082 0.30321,0.380515 0,0.14942 0.79583,1.357606 1.76847,2.684495 0.97269,1.326923 1.89458,2.732979 2.0487,3.124656 0.15423,0.391641 0.44983,0.712099 0.65731,0.712099 0.20724,0 0.37722,0.155978 0.37722,0.347007 0,0.190641 0.43073,1.107898 0.95752,2.03794 0.52659,0.930043 1.36076,2.498059 1.85365,3.484404 0.49287,0.986391 1.15361,2.275297 1.4683,2.864244 1.27493,2.386442 0.67902,2.019915 -5.02065,-3.087687 -4.40169,-3.944485 -17.38514,-14.319138 -21.75202,-17.3813 -2.00752,-1.407715 -4.40811,-3.055674 -6.41719,-4.40532 -1.06785,-0.717339 -2.14071,-1.456318 -2.38406,-1.64219 -0.24352,-0.186014 -1.17019,-0.771946 -2.05965,-1.302458 -0.88945,-0.530478 -1.70813,-1.052596 -1.81929,-1.160196 -0.11128,-0.107848 -2.11243,-1.328738 -4.44721,-2.713576 -2.3348,-1.3848514 -4.56552,-2.7282818 -4.95719,-2.9853972 -0.39156,-0.2572679 -0.87685,-0.4675468 -1.07815,-0.4675468 -0.20104,0 -0.42644,-0.1102026 -0.50072,-0.2445522 -0.2044,-0.3712734 -2.67193,-1.7119019 -3.15058,-1.7119019 -0.2316,0 -0.42069,-0.1232351 -0.42069,-0.273822 0,-0.1505857 -0.40923,-0.445553 -0.90966,-0.6556084 -0.50028,-0.2098911 -1.39269,-0.6371127 -1.98308,-0.9490346 -1.74899,-0.9240735 -10.47125,-5.1570856 -12.87465,-6.248158 -3.03048,-1.3757144 -17.96337,-7.2878503 -20.21461,-8.0032339 -1.0006,-0.318115 -2.18316,-0.699384 -2.62792,-0.847662 -0.44455,-0.148279 -1.80919,-0.58605 -3.0322,-0.972829 -1.22295,-0.386826 -2.58743,-0.831767 -3.03217,-0.988782 -1.0365,-0.365869 -12.64588,-3.404954 -15.56523,-4.07462 -1.223,-0.280368 -3.04233,-0.703045 -4.04294,-0.93905 -1.00064,-0.236087 -3.27476,-0.680946 -5.05363,-0.988818 -1.77892,-0.307718 -4.05307,-0.713759 -5.05369,-0.901974 -1.00062,-0.188321 -2.72897,-0.448897 -3.84076,-0.579385 -1.11178,-0.13056 -3.02208,-0.386438 -4.24506,-0.568837 -12.39613,-1.848842 -32.92441,-2.794567 -44.67431,-2.058121 -13.5212,0.84751 -15.23279,0.972605 -18.26716,1.335119 -7.9941,0.955086 -15.26489,1.988726 -18.72558,2.662125 -1.00063,0.19449 -2.68748,0.473669 -3.74857,0.619982 -1.06106,0.146347 -2.51651,0.411621 -3.2343,0.589511 -0.71786,0.177936 -2.48764,0.564833 -3.933025,0.859801 -2.86484,0.58466 -6.159792,1.321178 -8.692283,1.942937 -0.889459,0.218368 -2.708762,0.661802 -4.042933,0.985427 -1.334157,0.323507 -3.699277,0.938979 -5.255767,1.367508 -1.556534,0.428529 -4.103587,1.124227 -5.66012,1.546021 -1.55649,0.421794 -3.284838,0.915832 -3.840756,1.097924 -0.555919,0.182164 -2.011383,0.6460491 -3.234329,1.0310974 -1.222999,0.3851587 -2.58749,0.8243545 -3.032186,0.9762946 -0.444569,0.15174 -3.082768,1.0389972 -5.862253,1.9713124 -2.7795,0.9323624 -6.600053,2.2825041 -8.490144,3.0003019 C 44.262623,-1.088125 36.561041,1.9667836 36.361163,2.1582358 36.249922,2.2649019 34.885515,2.8621759 33.328964,3.4858543 31.772428,4.109522 28.710245,5.466798 26.52411,6.502016 c -2.186085,1.0352653 -4.054489,1.8822798 -4.151998,1.8822798 -0.0975,0 -0.946817,0.4005303 -1.887454,0.8900708 -2.402408,1.2502774 -3.237143,1.6585554 -3.933836,1.9241354 -0.333778,0.127086 -1.788985,0.844589 -3.234315,1.594353 -6.7549547,3.504123 -7.4816317,3.870616 -8.7933627,4.434896 -0.500284,0.215295 -0.909659,0.514501 -0.909659,0.66504 0,0.150586 -0.194812,0.273834 -0.433095,0.273834 -0.238283,0 -0.680407,0.183317 -0.982476,0.407618 -0.30226,0.224148 -1.48319297,0.921142 -2.62459797,1.548824 -3.31090303,1.820773 -7.43961403,4.177181 -7.97040803,4.549054 -0.268363,0.187945 -0.677914,0.342004 -0.909661,0.342004 -0.231586,0 -0.421634,0.110084 -0.422113,0.244552 -4.32e-4,0.13441 -0.8191193,0.661532 -1.8193213,1.171216 -1.000233,0.509639 -1.8186,1.059908 -1.8186,1.222774 0,0.162913 -0.273126,0.296168 -0.60644,0.296168 -0.333779,0 -0.606425,0.115147 -0.606425,0.255726 0,0.140567 -0.500298,0.500208 -1.111789,0.798943 -0.611508,0.298864 -1.657642,0.930972 -2.32472,1.404995 -0.667078,0.474011 -2.349923,1.536732 -3.739665,2.361636 -1.389742,0.82495 -2.526849,1.618311 -2.526849,1.763082 0,0.144805 -0.273125,0.263037 -0.606439,0.263037 -0.33378,0 -0.607719,0.110202 -0.609302,0.244564 0,0.134408 -1.366104,1.123073 -3.032184,2.196767 -1.666127,1.07373 -3.029339,2.064208 -3.029339,2.201006 0,0.136717 -0.257845,0.248792 -0.572765,0.248792 -0.315158,0 -0.633322,0.126709 -0.707481,0.281534 -0.07399,0.154813 -1.681169,1.349788 -3.571257,2.655602 -1.890028,1.305778 -3.837128,2.719815 -4.326864,3.142305 -0.48964,0.422524 -0.998665,0.768177 -1.131081,0.768177 -0.132335,0 -0.641394,0.339684 -1.131082,0.754767 -1.207189,1.023362 -5.319647,4.008499 -7.719801,5.603688 -1.079427,0.717386 -2.307762,1.544291 -2.729748,1.837563 -0.422113,0.293472 -1.398868,0.880252 -2.171,1.304318 -0.772081,0.424067 -1.405022,0.8811 -1.406555,1.015579 0,0.134409 -0.260243,0.244564 -0.575545,0.244564 -0.31516,0 -0.633323,0.120929 -0.707483,0.26843 -0.134572,0.26843 -7.325482,4.29745 -8.440086,4.729063 -0.323758,0.125555 -1.498759,0.666006 -2.61055,1.201181 -1.776103,0.854903 -9.10454,3.81946 -12.53308,5.069936 -0.66707,0.243399 -3.00062,0.934859 -5.18566,1.53678 -3.41239,0.940015 -3.88294,1.154568 -3.33541,1.521025 0.35048,0.234533 0.63737,0.6288 0.63737,0.875849 0,0.246871 0.1528,0.44918 0.33951,0.44918 0.18672,0 0.55249,0.330053 0.81288,0.733669 0.26024,0.403533 0.83348,1.173865 1.27346,1.71189 0.4398,0.538024 1.01309,1.308403 1.27348,1.711902 0.26024,0.403533 0.6262,0.733668 0.81286,0.733668 0.18671,0 0.33952,0.152505 0.33952,0.339295 0,0.386049 1.66226,2.376047 2.12253,2.541032 0.16665,0.05969 0.30322,0.24918 0.30322,0.420794 0,0.171767 0.34333,0.709709 0.76273,1.195635 0.41973,0.485914 3.44853,4.184987 6.73108,8.220166 3.282547,4.03518 6.486974,7.967691 7.120966,8.738873 0.633898,0.771182 1.152612,1.541552 1.152612,1.711892 0,0.17022 0.152792,0.30965 0.339515,0.30965 0.186708,0 0.552484,0.33005 0.812871,0.73367 0.260243,0.40353 0.833487,1.17386 1.273468,1.71189 0.439792,0.53802 1.013084,1.30838 1.273471,1.71188 0.260243,0.40356 0.626209,0.73367 0.812869,0.73367 0.186709,0 0.339518,0.15253 0.339518,0.3393 0,0.38607 1.662259,2.37606 2.122523,2.54105 0.166649,0.0597 0.303221,0.24917 0.303221,0.42079 0,0.17177 0.344758,0.70971 0.766408,1.19562 0.421634,0.48592 3.26989,3.9649 6.329644,7.73107 3.05969,3.76616 5.738948,7.03101 5.953883,7.2552 0.756945,0.78958 -0.12946,0.39671 -1.024879,-0.45431 z m 308.174392,0.53582 c 0,-0.17946 0.1695,-0.3262 0.37723,-0.3262 0.20725,0 0.50483,-0.33006 0.66092,-0.73367 0.15616,-0.40349 0.40206,-0.80704 0.54618,-0.89669 0.21345,-0.13288 2.5243,-3.12131 5.41512,-7.00321 0.26406,-0.35471 1.25336,-1.63075 2.19841,-2.83581 0.94505,-1.20511 1.71821,-2.33338 1.71821,-2.5073 0,-0.17407 0.13937,-0.3651 0.30993,-0.42499 0.17045,-0.0597 1.12553,-1.18288 2.12251,-2.49582 0.9971,-1.31294 2.1285,-2.78028 2.51435,-3.26077 0.38582,-0.48048 0.89394,-1.16704 1.12916,-1.52572 0.51547,-0.78608 1.06614,-1.51391 2.52369,-3.33578 0.60697,-0.758672 1.10358,-1.529001 1.10358,-1.711908 0,-0.182928 0.15997,-0.332746 0.35526,-0.332746 0.19531,0 0.58128,-0.440196 0.85762,-0.978219 0.27647,-0.538028 0.66221,-0.978224 0.8576,-0.978224 0.19531,0 0.35527,-0.162148 0.35527,-0.360489 0,-0.197952 0.50893,-0.968519 1.13089,-1.711892 0.622,-0.743335 1.26077,-1.571664 1.41949,-1.840682 0.15855,-0.268819 0.60496,-0.881748 0.99166,-1.361621 0.77417,-0.960773 5.12062,-6.574327 5.88297,-7.59803 0.26404,-0.354708 1.25337,-1.630757 2.1984,-2.835823 0.94505,-1.205101 1.71823,-2.333367 1.71823,-2.507288 0,-0.174087 0.13986,-0.365105 0.31085,-0.424997 0.17096,-0.05969 1.38302,-1.54528 2.69322,-3.301204 1.3102,-1.755876 2.53472,-3.268577 2.72118,-3.361508 0.18671,-0.09278 0.33904,-0.51284 0.33904,-0.933045 0,-0.529089 -0.34189,-0.8744 -1.11179,-1.122956 -0.6115,-0.197575 -1.65763,-0.653678 -2.32471,-1.013931 -0.66709,-0.360099 -1.53124,-0.743758 -1.92035,-0.852253 -0.38917,-0.108554 -0.70754,-0.320811 -0.70754,-0.471586 0,-0.150975 -0.81868,-0.661225 -1.81931,-1.134199 -1.00063,-0.47294 -1.81931,-0.992715 -1.81931,-1.155005 0,-0.162135 -0.27314,-0.295002 -0.60645,-0.295002 -0.33329,0 -0.60643,-0.121705 -0.60643,-0.270749 0,-0.149043 -0.8312,-0.752271 -1.84721,-1.340664 -1.01595,-0.588486 -2.27079,-1.383732 -2.78852,-1.767203 -0.51776,-0.383588 -1.46031,-1.062686 -2.09464,-1.509358 -1.58071,-1.113018 -6.95846,-4.882652 -8.38211,-5.875555 -0.6404,-0.446625 -1.64102,-1.180022 -2.22358,-1.629697 -0.94362,-0.728359 -4.22197,-3.032774 -7.46315,-5.245989 -0.63152,-0.43119 -1.81408,-1.267185 -2.62794,-1.857779 -0.81383,-0.590559 -2.34391,-1.611188 -3.40012,-2.268022 -1.0562,-0.656799 -1.92041,-1.310782 -1.92041,-1.45328 0,-0.142498 -0.27265,-0.259187 -0.60644,-0.259187 -0.3333,0 -0.60643,-0.116678 -0.60643,-0.259199 0,-0.142498 -0.93736,-0.835606 -2.08299,-1.540276 -1.14563,-0.704669 -2.2827,-1.437609 -2.52684,-1.628826 -0.24402,-0.191406 -1.99023,-1.292604 -3.8803,-2.44756 -1.8901,-1.154956 -3.70939,-2.276606 -4.04294,-2.492548 -1.65406,-1.070739 -9.0695,-5.384979 -11.92659,-6.938818 -1.77892,-0.967365 -3.29502,-1.88089 -3.36913,-2.029933 -0.074,-0.149044 -0.29224,-0.271126 -0.48509,-0.271126 -0.19244,0 -1.13267,-0.418438 -2.08884,-0.929854 -4.1996,-2.2461 -7.57617,-3.961275 -7.79844,-3.961275 -0.25836,0 -0.30849,-0.03084 -2.98851,-1.877653 -0.97417,-0.671043 -3.0437,-1.617464 -4.5989,-2.103178 -1.55526,-0.485725 -3.12335,-1.074824 -3.48463,-1.309099 -0.36101,-0.234155 -1.93039,-0.937401 -3.48693,-1.562456 -1.55654,-0.625068 -2.92102,-1.222362 -3.03219,-1.3273134 -0.11126,-0.105141 -4.29558,-1.8118726 -9.29871,-3.7931578 -9.30031,-3.6829426 -12.86777,-5.035781 -18.79958,-7.12929289 -0.66708,-0.23532181 -2.44142,-0.87597801 -3.94295,-1.42343331 -1.50149,-0.5474671 -2.96607,-0.9953637 -3.25457,-0.9953637 -0.28842,0 -0.69731,-0.1175019 -0.90857,-0.2607412 -0.21104,-0.1436514 -1.47566,-0.5965165 -2.80979,-1.0067253 -1.3342,-0.4102324 -2.78963,-0.8718926 -3.23439,-1.0259401 -0.80937,-0.2803681 -4.01164,-1.2979605 -6.67083,-2.1197793 -0.77823,-0.2407023 -3.05238,-0.8939565 -5.05364,-1.4521259 -2.00124,-0.558087 -4.23607,-1.2274831 -4.96628,-1.4875531 -0.73021,-0.259964 -1.58819,-0.47275 -1.90666,-0.47275 -0.31849,0 -1.17644,-0.201037 -1.9067,-0.446555 -1.64264,-0.552471 -3.77257,-1.153732 -5.37055,-1.516175 -0.6671,-0.151351 -2.94123,-0.710404 -5.05368,-1.242459 -3.65789,-0.921342 -3.78657,-0.984508 -2.70263,-1.326688 0.62596,-0.197575 1.48496,-0.359323 1.9089,-0.359323 0.42404,0 2.09494,-0.212975 3.71337,-0.472857 8.19659,-1.317105 12.887,-1.613697 25.38082,-1.604831 12.43189,0.0082 15.75175,0.211821 26.27897,1.607256 7.56937,1.003288 16.15003,2.543964 21.83179,3.919902 8.89238,2.153405 14.72141,3.7464856 20.82108,5.6903064 0.97279,0.3100261 3.87773,1.3083921 5.96329,2.0495724 0.83388,0.2961685 1.5161,0.6812168 1.5161,0.855374 0,0.1740747 0.68226,0.411551 1.51608,0.5276636 1.99596,0.2780604 8.16683,2.65753313 8.45339,3.25975981 0.12321,0.25957566 0.661,0.47159719 1.19467,0.47159719 1.00965,0 8.55566,3.0434295 14.03642,5.6611787 1.74172,0.8318383 3.31846,1.5124777 3.5039,1.5124777 0.18525,0 0.39774,0.1124396 0.47175,0.2499445 0.074,0.1374942 1.4667,0.9077558 3.09457,1.7119023 1.62787,0.8041464 3.4472,1.7172474 4.04294,2.0291214 0.59569,0.311958 1.35603,0.668007 1.68957,0.791395 0.33331,0.123248 0.69741,0.308496 0.80858,0.41121 0.33999,0.313877 2.78308,1.654164 3.01581,1.654164 0.12038,0 0.53692,0.22376 0.92603,0.496969 0.38917,0.273433 3.7094,2.277147 7.37834,4.453005 3.66897,2.17581 6.76181,4.043149 6.87296,4.149595 0.11115,0.106312 1.11179,0.771369 2.22363,1.477581 1.1118,0.706247 2.31715,1.51329 2.67863,1.793422 0.36148,0.279992 1.90789,1.383497 3.43647,2.451882 3.09632,2.164072 12.74211,9.88867 15.47515,12.392849 0.97145,0.890142 2.67413,2.577578 3.78374,3.749878 1.10958,1.172287 2.17651,2.180319 2.37083,2.240094 0.19435,0.05969 0.35338,0.258799 0.35338,0.442199 0,0.183329 0.54579,0.889305 1.21285,1.568627 0.6671,0.679286 1.21289,1.379458 1.21289,1.555841 0,0.176394 0.23157,0.475634 0.51418,0.664922 0.63543,0.425337 3.97662,5.841198 4.95918,8.038508 1.03125,2.306074 1.03792,6.913127 0.01,8.176072 -1.96395,2.417456 -6.1871,4.063836 -10.42421,4.063836 -2.27271,0 -2.6221,0.24148 -7.18872,4.972615 -0.99538,1.031227 -1.94862,1.874968 -2.11833,1.874968 -0.16951,0 -0.30846,0.219898 -0.30846,0.489104 0,0.268819 -0.13891,0.489118 -0.30849,0.489118 -0.16951,0 -1.39771,1.099466 -2.72895,2.44325 -1.33126,1.343749 -2.55699,2.444252 -2.72372,2.445559 -0.16667,0 -0.30324,0.22223 -0.30324,0.491424 0,0.268818 -0.13904,0.489116 -0.30846,0.489116 -0.16953,0 -1.39773,1.099468 -2.72897,2.443252 -1.33126,1.343748 -2.55698,2.444251 -2.72373,2.445558 -0.16664,0 -0.30322,0.222229 -0.30322,0.491424 0,0.26883 -0.13889,0.489117 -0.30847,0.489117 -0.16951,0 -1.39772,1.099466 -2.72898,2.44325 -1.33125,1.343752 -2.55697,2.444255 -2.72372,2.445574 -0.16664,0 -0.30321,0.222217 -0.30321,0.491424 0,0.268817 -0.13889,0.489106 -0.30849,0.489106 -0.16949,0 -1.3977,1.09947 -2.72896,2.44325 -1.33126,1.343752 -2.55697,2.444252 -2.7237,2.445572 -0.16666,0 -0.30323,0.22222 -0.30323,0.49143 0,0.26881 -0.13889,0.4891 -0.30847,0.4891 -0.16952,0 -1.39772,1.09947 -2.72897,2.44325 -1.33127,1.34375 -2.55697,2.44426 -2.72372,2.44557 -0.16665,0 -0.30323,0.22221 -0.30323,0.49142 0,0.26882 -0.13887,0.48911 -0.30847,0.48911 -0.16953,0 -1.39773,1.09947 -2.72897,2.44324 -1.33125,1.34377 -2.55698,2.44427 -2.72373,2.44558 -0.16665,0 -0.30321,0.22221 -0.30321,0.49142 0,0.26882 -0.13889,0.48911 -0.30849,0.48911 -0.1695,0 -1.39766,1.09947 -2.72896,2.44327 -1.33126,1.34374 -2.55697,2.44424 -2.72372,2.44555 -0.16664,0 -0.30321,0.22221 -0.30321,0.49142 0,0.26882 -0.13665,0.49046 -0.30324,0.49213 -0.16664,0.003 -1.468,1.17556 -2.8916,2.60862 -2.65252,2.67013 -2.86955,2.8425 -2.86955,2.27949 z"
         id="path1568"
         inkscape:connector-curvature="0" />
    </g>
    <text
       id="text1574"
       y="311.31778"
       x="-71.131096"
       style="font-style:normal;font-variant:normal;font-weight:bold;font-stretch:normal;font-size:4.91384172px;line-height:1.25;font-family:'Noto Sans';-inkscape-font-specification:'Noto Sans, Bold';font-variant-ligatures:normal;font-variant-caps:normal;font-variant-numeric:normal;font-feature-settings:normal;text-align:start;letter-spacing:0px;word-spacing:0px;writing-mode:lr-tb;text-anchor:start;fill:#000000;fill-opacity:1;stroke:none;stroke-width:0.12284225"
       xml:space="preserve"><tspan
         y="311.31778"
         x="-71.131096"
         id="tspan1572"
         sodipodi:role="line">GNUVARIO-E</tspan></text>
    <text
       id="text1584"
       y="280.30692"
       x="-70.372391"
       style="font-style:normal;font-variant:normal;font-weight:bold;font-stretch:normal;font-size:4.48980284px;line-height:1.25;font-family:'Noto Sans';-inkscape-font-specification:'Noto Sans, Bold';font-variant-ligatures:normal;font-variant-caps:normal;font-variant-numeric:normal;font-feature-settings:normal;text-align:start;letter-spacing:0px;word-spacing:0px;writing-mode:lr-tb;text-anchor:start;fill:#000000;fill-opacity:1;stroke:none;stroke-width:0.11224774"
       xml:space="preserve"><tspan
         sodipodi:role="line"
         id="tspan881"
         x="-70.372391"
         y="280.30692">Redmarrage</tspan><tspan
         sodipodi:role="line"
         id="tspan884"
         x="-70.372391"
         y="285.91916">    en cours</tspan></text>
  </g>
</svg>
