<?xml version="1.0" encoding="UTF-8" standalone="no"?>
<!-- Created with Inkscape (http://www.inkscape.org/) -->

<svg
   xmlns:osb="http://www.openswatchbook.org/uri/2009/osb"
   xmlns:dc="http://purl.org/dc/elements/1.1/"
   xmlns:cc="http://creativecommons.org/ns#"
   xmlns:rdf="http://www.w3.org/1999/02/22-rdf-syntax-ns#"
   xmlns:svg="http://www.w3.org/2000/svg"
   xmlns="http://www.w3.org/2000/svg"
   xmlns:sodipodi="http://sodipodi.sourceforge.net/DTD/sodipodi-0.dtd"
   xmlns:inkscape="http://www.inkscape.org/namespaces/inkscape"
   width="75.884056mm"
   height="164mm"
   viewBox="0 0 75.884055 164"
   version="1.1"
   id="svg8"
   inkscape:version="0.92.3 (2405546, 2018-03-11)"
   sodipodi:docname="ecran291c.svg">
  <defs
     id="defs2">
    <linearGradient
       id="linearGradient2323"
       osb:paint="solid">
      <stop
         style="stop-color:#000000;stop-opacity:1;"
         offset="0"
         id="stop2321" />
    </linearGradient>
  </defs>
  <sodipodi:namedview
     id="base"
     pagecolor="#ffffff"
     bordercolor="#666666"
     borderopacity="1.0"
     inkscape:pageopacity="0.0"
     inkscape:pageshadow="2"
     inkscape:zoom="1.979899"
     inkscape:cx="24.942615"
     inkscape:cy="203.68016"
     inkscape:document-units="mm"
     inkscape:current-layer="layer1"
     showgrid="false"
     inkscape:window-width="1680"
     inkscape:window-height="987"
     inkscape:window-x="-8"
     inkscape:window-y="-8"
     inkscape:window-maximized="1"
     inkscape:measure-start="6.14323,277.876"
     inkscape:measure-end="153.75,33.5714"
     fit-margin-top="2"
     fit-margin-right="2"
     fit-margin-bottom="2"
     fit-margin-left="2" />
  <metadata
     id="metadata5">
    <rdf:RDF>
      <cc:Work
         rdf:about="">
        <dc:format>image/svg+xml</dc:format>
        <dc:type
           rdf:resource="http://purl.org/dc/dcmitype/StillImage" />
        <dc:title></dc:title>
      </cc:Work>
    </rdf:RDF>
  </metadata>
  <g
     inkscape:label="Calque 1"
     inkscape:groupmode="layer"
     id="layer1"
     transform="translate(97.613516,-236.71812)">
    <g
       id="g831"
       transform="matrix(1.7840208,0,0,1.7840208,74.962989,-312.60331)">
      <path
         inkscape:connector-curvature="0"
         id="path825"
         d="m -76.496399,341.45252 c -0.107067,-0.0457 -1.306891,-1.04993 -2.666281,-2.23159 l -2.47161,-2.14847 h -2.3652 c -2.3338,0 -2.36722,-0.003 -2.51673,-0.21633 -0.12938,-0.18472 -0.15152,-0.66601 -0.15152,-3.29425 0,-2.85823 0.0127,-3.08942 0.178,-3.23901 0.15524,-0.14048 0.47716,-0.16108 2.51754,-0.16108 2.2758,0 2.3472,-0.006 2.62034,-0.21835 0.15443,-0.12009 1.28036,-1.08364 2.50206,-2.14122 1.2217,-1.05758 2.330879,-1.95038 2.464846,-1.98401 0.380984,-0.0956 0.691797,0.10267 0.813141,0.51876 0.07569,0.25954 0.09897,2.50469 0.07825,7.54516 -0.0289,7.02852 -0.03349,7.17951 -0.224168,7.36283 -0.2476,0.23805 -0.530595,0.31348 -0.778668,0.20756 z m 6.29966,-0.15158 c -0.377713,-0.26456 -0.289298,-0.70713 0.320049,-1.60201 0.665317,-0.97708 0.918325,-1.47329 1.292973,-2.53586 0.93534,-2.65277 0.741928,-5.76952 -0.512993,-8.26662 -0.147968,-0.29443 -0.504679,-0.87337 -0.792693,-1.28654 -0.573415,-0.82258 -0.672753,-1.27369 -0.345663,-1.56971 0.276131,-0.24989 0.764091,-0.20483 1.043211,0.0963 0.99485,1.07346 2.033998,3.30614 2.417073,5.19324 0.588628,2.89969 0.0052,6.13086 -1.560545,8.64303 -0.875716,1.40503 -1.309614,1.71461 -1.861412,1.32812 z m -1.772041,-1.82299 c -0.132945,-0.0673 -0.285423,-0.24657 -0.33884,-0.39846 -0.08147,-0.23167 -0.05387,-0.34897 0.171295,-0.72793 0.561235,-0.9446 1.125819,-2.23003 1.275623,-2.90432 0.09249,-0.4163 0.155362,-1.14691 0.154957,-1.80067 -0.0011,-1.72622 -0.383928,-3.0294 -1.30878,-4.45483 -0.40709,-0.62744 -0.430747,-0.89993 -0.106296,-1.22438 0.405098,-0.4051 0.815965,-0.26977 1.288087,0.42424 1.785165,2.62419 2.083493,6.27515 0.748803,9.16391 -0.451868,0.97801 -1.006712,1.81999 -1.281974,1.94541 -0.28032,0.12772 -0.307069,0.1267 -0.602875,-0.023 z m -2.240285,-2.21083 c -0.266738,-0.26673 -0.2444,-0.58834 0.08639,-1.24377 0.797869,-1.58092 0.802579,-3.21314 0.01361,-4.71826 -0.333331,-0.6359 -0.373741,-1.04522 -0.124336,-1.25942 0.664802,-0.57097 1.228188,-0.0813 1.813394,1.57612 0.261294,0.74004 0.292437,0.95057 0.295156,1.99533 0.0022,0.85531 -0.04406,1.32299 -0.172901,1.74691 -0.212851,0.70036 -0.678431,1.64354 -0.940812,1.90592 -0.247484,0.24749 -0.721572,0.24611 -0.970504,-0.003 z"
         style="fill:#000000;stroke-width:0.09733338" />
      <rect
         y="309.10971"
         x="-95.53688"
         height="89.531776"
         width="40.140007"
         id="rect846"
         style="opacity:1;fill:#000000;fill-opacity:0;stroke:#000000;stroke-width:0.15327561;stroke-linejoin:round;stroke-miterlimit:4;stroke-dasharray:none;stroke-opacity:1;paint-order:fill markers stroke" />
      <text
         id="text960"
         y="369.43295"
         x="-83.371742"
         style="font-style:normal;font-variant:normal;font-weight:normal;font-stretch:normal;font-size:13.54878235px;line-height:1.25;font-family:'Jersey M54';-inkscape-font-specification:'Jersey M54, Normal';font-variant-ligatures:normal;font-variant-caps:normal;font-variant-numeric:normal;font-feature-settings:normal;text-align:start;letter-spacing:0px;word-spacing:0px;writing-mode:lr-tb;text-anchor:start;fill:#000000;fill-opacity:1;stroke:none;stroke-width:0.33871695"
         xml:space="preserve"><tspan
           y="369.43295"
           x="-83.371742"
           id="tspan962"
           sodipodi:role="line">10</tspan></text>
    </g>
  </g>
</svg>
